<?xml version="1.0" encoding="utf-8"?>
<!-- Generator: Adobe Illustrator 25.0.0, SVG Export Plug-In . SVG Version: 6.00 Build 0)  -->
<svg version="1.1" id="레이어_1" xmlns="http://www.w3.org/2000/svg" xmlns:xlink="http://www.w3.org/1999/xlink" x="0px"
	 y="0px" width="53.9px" height="64.9px" viewBox="0 0 53.9 64.9" style="enable-background:new 0 0 53.9 64.9;"
	 xml:space="preserve">
<style type="text/css">
	.st0{fill:#00ED6B;}
</style>
<g>
	<path class="st0" d="M9,12.6c0,4.6,9.9,12.6,9.9,12.6l2.5-3.1c-0.1-0.1-0.2-0.2-0.3-0.4c0.1,0.1,0.2,0.2,0.3,0.4l7.4-9.4l-7.4-9.4
		L18.9,0C18.9,0,9,8,9,12.6"/>
</g>
<g>
	<path class="st0" d="M26.9,64.9C12.1,64.9,0,52.8,0,38h3c0,13.2,10.7,23.9,23.9,23.9c13.2,0,23.9-10.7,23.9-23.9
		S40.1,14.1,26.9,14.1h-8v-3h8c14.8,0,26.9,12.1,26.9,26.9C53.9,52.8,41.8,64.9,26.9,64.9z"/>
</g>
</svg>
