<?xml version="1.0" encoding="utf-8"?>
<!-- Generator: Adobe Illustrator 25.0.0, SVG Export Plug-In . SVG Version: 6.00 Build 0)  -->
<svg version="1.1" id="레이어_1" xmlns="http://www.w3.org/2000/svg" xmlns:xlink="http://www.w3.org/1999/xlink" x="0px"
	 y="0px" width="120.8px" height="23.3px" viewBox="0 0 120.8 23.3" style="enable-background:new 0 0 120.8 23.3;"
	 xml:space="preserve">
<style type="text/css">
	.st0{fill:#00ED6B;}
</style>
<path class="st0" d="M120,4.8c-0.4-0.9-0.8-1.8-1.2-2.7l-1.7,0.2l-3.6-1.3l-3.4,2l-3.4,0.8l-3.4,0.7l-3.7-2.6l-3.5-0.1l-3.2,3.8
	l-3.8-2.9l-3.4,1.2l-3.5,0.2l-3.4,0.7l-3.3,2.3l-3.9-2.9l-3.4,2.7l-3.6-0.5l-3.5-1.2l-3.6,1.2l-3.5-1.8l-3.6,0.5L47,4.3L43.3,6
	l-3.4-1.6l-3.7,1.4l-3.5-1L29.1,4l-3.7,0.8L22,3l-3.7,0.8l-3.4-1.5L11.6,0L7.8,1.6L3.7,1.2L0,3.5L1.4,8l0.1,3l1.6,2.9l3.2,0.6
	l3.6,0.3l3.3,2.2l3.8-1.6l3.1,4.2l4-3.3l3.4,2.1l3.6-0.4l3.4,1.9l3.5,1.3l3.6-0.4l3.7-1.3l3.5,1.5l3.7-2.1l3.5,1.1l3.5,1.3l3.5,2
	l3.6-1.6l3.5-1.2l3.6,0l3.8,1.7l3.2-3.4l3.6-0.5l3.9,2.3l3.3-3.6l3.8,1l3.8,1.9l3.6-0.6l3.5-3.4l3.8,2.6l3.6-1.7l3.6-1.5l2,0.1
	c0-0.1,0.1-0.3,0.1-0.4C120.6,11.4,121.5,8.4,120,4.8z"/>
</svg>
