<?xml version="1.0" encoding="utf-8"?>
<!-- Generator: Adobe Illustrator 25.0.0, SVG Export Plug-In . SVG Version: 6.00 Build 0)  -->
<svg version="1.1" id="레이어_1" xmlns="http://www.w3.org/2000/svg" xmlns:xlink="http://www.w3.org/1999/xlink" x="0px"
	 y="0px" width="93.7px" height="93.7px" viewBox="0 0 93.7 93.7" style="enable-background:new 0 0 93.7 93.7;"
	 xml:space="preserve">
<style type="text/css">
	.st0{fill:none;}
	.st1{fill:#00ED6C;}
	.st2{fill:#FFF100;}
	.st3{fill:#F2F2F2;}
	.st4{fill:#262626;}
</style>
<g>
	<polygon class="st0" points="33.6,34.6 34.1,35.4 34.9,35.9 35.7,36.3 36.7,36.4 37.6,36.3 38.4,35.9 39.1,35.3 39.7,34.6 40,33.8 
		40.3,32.9 40,32 39.8,31.1 39.2,30.3 38.4,29.8 37.6,29.4 36.7,29.4 35.7,29.4 34.9,29.8 34.1,30.4 33.5,31.1 33.2,31.9 33.2,32.9 
		33.3,33.8 	"/>
	<polygon class="st0" points="47.4,34.6 47.9,35.4 48.6,36 49.5,36.3 50.4,36.5 51.3,36.3 52.2,35.9 52.9,35.3 53.5,34.7 53.8,33.8 
		54,32.9 53.8,32 53.5,31.1 52.9,30.4 52.2,29.7 51.3,29.5 50.4,29.3 49.5,29.4 48.6,29.8 48,30.4 47.4,31.1 47,32 46.9,32.9 
		46.9,33.8 	"/>
	<path class="st1" d="M31.3,58.5c1,0.5-1.6-0.8,1.9,0.8c0.3,0.8,0.7,0.8,1.7,1c0,0.1,0,0.2,0,0.3c0,0,0,0,0,0
		c0.8,0.8,0.5,0.3,1.4,0.9l0.2,0.1l0.9,0.4l0.8,0.4l0.8,0.5l0.9,0.4l0.6,0.8l0.9,0.3l0.8,0.5l0.5,0.9l1,0.2l0.7,0.7l1,0.3l0.1,0.1
		l0,0.2l-0.1,0.9l0.4,0.9l-0.5,0.9l0.4,0.9l0.1,0.9l-0.2,0.9L45.3,74l0.3,0.9l-0.2,0.9l0.3,0.9l-0.1,0.9l-0.3,0.9l0.4,0.9l-0.4,0.9
		l0.2,0.9l-0.1,0.9l0.3,0.9l-0.1,0.9l0,0.9l0,0.9l0,0.9l-0.2,0.9l0.2,0.9l0.1,0.9L45.5,91l-0.9,0l-1-0.1l-1,0l-0.9-0.5l-1,0l-1,0.2
		l-1-0.1L38,89.9l-1,0.2l-0.9-0.5l-0.9-0.2l-1,0l-0.9-0.4l-0.9-0.4l-0.9-0.2l-0.8-0.5l-0.8-0.5l-1-0.1L28,86.9l-0.8-0.5L26.3,86
		l-0.8-0.6l-0.8-0.6l-0.8-0.5l-1.1-0.1l-0.7-0.7l-0.9-0.4l-0.6-0.8L20,81.6l-0.8-0.5l-0.9-0.4L17.6,80l-0.5-0.8l-0.8-0.5L15.6,78
		l-0.7-0.7l-0.8-0.5L13.5,76L13,75.2l-0.5-0.8l-0.6-0.7l-0.7-0.7L10.9,72l-0.8-0.6l-0.5-0.8L9,69.8l-0.4-0.8L8.2,68l-0.7-0.7
		l-0.3-0.9l-0.4-0.9l-0.6-0.8l-0.2-1l-0.4-0.9l-0.2-0.9L5.3,61l-0.3-0.9l-0.7-0.8l0.1-1L4,57.4l-0.1-1l-0.3-0.9l-0.4-0.9L3,53.7
		l0.2-1l0.1-1l-0.1-0.9l-0.1-1l-0.3-0.9l-0.1-1l0.1-1l-0.2-1l0.1-1L3,44.1l0-1L3,42.2l0.2-0.9l-0.2-1l0.1-0.9l0.5-0.9l-0.2-1
		l0.5-0.9l0.1-0.9l0.5-0.9l0.2-0.9l-0.1-1L5.3,32l0.2-0.9l0.6-0.8l0.3-0.9l0.4-0.9l0.4-0.9l0.6-0.8l0.3-0.9L8.3,25l0.5-0.8l0.7-0.7
		l0.7-0.7l0.4-0.9l0.6-0.8l0.5-0.8l0.4-0.9l0.6-0.7l0.7-0.7l0.8-0.5l0.5-0.9l0.9-0.5l0.4-0.9l0.9-0.4l0.8-0.6l0.7-0.7l0.6-0.7
		l0.7-0.6l0.7-0.6l0.9-0.4l0.6-0.8l0.9-0.3l0.8-0.5L24.3,9l0.9-0.3L26,8.3l0.7-0.7l0.8-0.5l0.9-0.3l0.8-0.6l1-0.1l0.9-0.2L32,5.6
		l0.9-0.4l0.9-0.3l0.9-0.2l0.9-0.5l1,0l0.9-0.5l0.9-0.2l1,0.1l0.9-0.3l0.9-0.1L42.1,3l0.9-0.2l1-0.1l1,0l0.9-0.1l1,0.2l0.9,0.1
		l0.9,0.1l1-0.3l0.9,0.5l1,0l1-0.2l0.9,0.2l0.9,0.5l1,0l0.9,0.2l0.9,0.4l1,0l0.9,0.3L60,4.6L60.9,5l0.8,0.5l1,0l0.8,0.6l0.9,0.2
		l0.9,0.4l0.9,0.4L67,7.6l0.7,0.7l1,0.2L69.5,9l0.9,0.4l0.8,0.5l0.7,0.6l0.7,0.7l0.7,0.6l0.9,0.4l0.8,0.5l0.5,0.8l0.7,0.7l0.8,0.6
		l0.6,0.7l0.6,0.7l0.7,0.6l0.8,0.6l0.5,0.8l0.8,0.6l0.3,1l0.5,0.8l0.6,0.7l0.6,0.8l0.8,0.6l0.2,1l0.5,0.8l0.7,0.7l0.3,0.9l0.3,0.9
		l0.4,0.9l0.6,0.8l0.2,0.9l0.6,0.8l0.1,1l0.7,0.8l0.1,1l0.4,0.9l0.3,0.9l0,1l0.6,0.8l0,1l0,1l0.3,0.9l0.2,0.9l0.2,0.9l-0.1,1
		l0.3,0.9l0.1,0.9l0,1l-0.1,1l0,0.9l0,1l0.2,1l-0.3,0.9l0.1,1l-0.2,0.9l-0.1,0.9l0,1l-0.5,0.9l0.2,1l-0.6,0.9l0,1l-0.1,1l-0.3,0.9
		L88.8,60L88.5,61l-0.3,0.9l-0.3,0.9l-0.3,0.9l-0.4,0.8l-0.3,0.9l-0.2,1l-0.5,0.8l-0.7,0.7l-0.3,0.9l-0.3,0.9l-0.6,0.8l-0.5,0.8
		l-0.4,0.9l-0.6,0.8L82,73.6l-0.7,0.6l-0.5,0.8l-0.8,0.6l-0.4,0.9L79,77.3L78.4,78l-0.8,0.6l-0.7,0.6l-0.8,0.5l-0.6,0.8l-0.7,0.7
		l-0.9,0.4l-0.8,0.5L72.6,83l-0.9,0.4L71,84.2l-1,0.3l-0.8,0.5l-0.7,0.7l-1,0.1l-0.7,0.7l-1,0.2l-0.6,0.6l0,0.9l0.4,0.8l0.7,0.6
		l0.7-0.2l0.8-0.6l0.9-0.3l1-0.2l0.8-0.5l0.8-0.5l0.8-0.6l0.9-0.4l0.6-0.8l0.9-0.4l0.7-0.7l0.9-0.4l0.5-0.9l0.7-0.6l0.9-0.4l0.8-0.6
		l0.7-0.7l0.4-0.9l0.7-0.6l0.5-0.8l0.7-0.7l0.6-0.8l0.8-0.5l0.3-0.9l0.6-0.8l0.5-0.8l0.6-0.8l0.6-0.8l0.5-0.8l0.4-0.9l0.5-0.8
		l0.8-0.6l0.1-1.1l0.4-0.9l0.4-0.8l0.4-0.9l0.4-0.9l0.3-0.9L91,63l0.2-0.9l0.1-1l0.5-0.8l0-1l0.3-0.9l0.5-0.9l0.1-1l0.1-0.9l0.3-0.9
		l0-1l0.1-1l-0.1-1l0.2-0.9l0.4-0.9l-0.4-1l0.2-0.9l0.1-1l-0.1-1l0-1l0-1l-0.1-0.9l0-1l-0.3-0.9L93,40.3l0.1-1l-0.2-0.9l-0.3-0.9
		l-0.3-0.9l0.1-1l-0.5-0.9l-0.2-0.9l-0.5-0.8l0-1l-0.4-0.9l-0.5-0.8l-0.2-1l-0.3-0.9l-0.5-0.8l-0.3-0.9l-0.7-0.7L88,25l-0.4-0.9
		l-0.3-0.9l-0.6-0.8L86,21.8l-0.3-0.9L85.2,20l-0.5-0.8L84,18.5l-0.5-0.9l-0.9-0.5l-0.3-1l-0.7-0.7L80.8,15l-0.6-0.8l-0.6-0.8
		l-0.8-0.5l-0.8-0.6l-0.8-0.6L76.8,11l-0.9-0.4l-0.5-0.9l-0.8-0.5l-0.8-0.5L73,8.1l-0.8-0.6l-1-0.2l-0.8-0.5l-0.9-0.4l-0.7-0.7
		l-1-0.2l-0.8-0.4l-0.8-0.6l-1-0.2l-0.8-0.6l-0.9-0.4l-0.9-0.3l-0.9-0.3L61,2.4l-1-0.1l-0.9-0.4l-0.9-0.3l-0.9-0.3l-0.9-0.1l-1,0
		l-0.9-0.5l-0.9-0.2l-1,0.2l-0.9-0.4l-1,0.3l-0.9,0L48.8,0l-1,0.3l-1-0.1l-1,0l-1,0.1l-1-0.2l-0.9,0.3l-0.9,0.3l-1-0.4l-0.9,0.6
		l-1-0.3l-0.9,0.4l-0.9,0.2l-0.9,0.2l-0.9,0.2l-0.9,0.3l-0.9,0.2l-0.9,0.4L32,2.9l-1.1-0.1l-0.8,0.6l-0.9,0.3l-0.8,0.5l-0.9,0.4
		l-1,0.2l-0.7,0.7l-1,0.2l-0.7,0.7l-0.9,0.3l-0.9,0.3l-0.6,0.8l-0.9,0.4l-0.7,0.7l-0.9,0.4l-0.7,0.6l-0.8,0.5l-0.7,0.7l-0.7,0.6
		l-0.9,0.5l-0.6,0.7l-0.5,0.8l-0.7,0.6l-0.8,0.6l-0.5,0.8l-0.7,0.6l-0.7,0.7L10.5,18l-0.8,0.6l-0.7,0.7l-0.3,0.9l-0.8,0.6l-0.2,1
		l-0.6,0.7l-0.6,0.8l-0.4,0.9l-0.6,0.8l-0.3,0.9l-0.7,0.7l-0.1,1l-0.4,0.8l-0.6,0.8l-0.1,1L3,31.1L2.7,32l-0.3,0.9l-0.5,0.8l0,1
		l-0.5,0.9l-0.3,0.9l-0.1,1l-0.2,0.9l-0.4,0.9l-0.1,1l0.2,1l-0.4,0.9l-0.1,0.9l0.2,1L0,45l0.4,1l0,0.9l-0.3,1l-0.1,1l0.2,0.9l-0.1,1
		l0,1l0.1,0.9l0.4,0.9l0.2,0.9l0.2,0.9l0.1,1l0.2,0.9l-0.1,1l0.6,0.8l0.3,0.9l0,1L2.4,62L3,62.8l0.2,1l0.5,0.8L4,65.5l0.3,0.9
		l0.5,0.8l0.2,1l0.7,0.7L6,69.8l0.7,0.7l0.3,0.9l0.3,1l0.9,0.6l0.3,0.9l0.6,0.8l0.6,0.7l0.7,0.7l0.6,0.8l0.5,0.8l0.6,0.7l0.6,0.8
		l0.9,0.5l0.4,0.9l0.8,0.6l0.6,0.8l0.8,0.6l0.8,0.6l0.8,0.5l0.7,0.7l0.9,0.4l0.7,0.7l0.8,0.5l0.7,0.7l1,0.2l0.8,0.5l0.8,0.5l0.7,0.7
		l1,0.1l0.7,0.8l1,0.1l0.8,0.6l1,0.2l0.8,0.5l1,0.1l0.9,0.3l0.9,0.4l1,0.1l0.8,0.7l0.9,0.2l1,0l0.9,0.4l1,0l0.9,0.3l1-0.1l0.9,0.4
		l0.9,0.1l1,0.1l1-0.3l0.9,0.3l1-0.2l0.9,0.1l0.9-0.3l0.3-0.9l0.4-1l-0.2-1l-0.1-1l-0.1-1l-0.1-1l0.2-1l0.3-1l-0.1-1l0.2-1l-0.4-1
		l0.4-1l-0.4-1l0-1l-0.1-1l0.3-1l-0.3-1l0.1-1l0.2-1l0-1l-0.1-1l0.3-1l-0.3-1l0.4-1l-0.3-1l0.3-1l-0.2-1l0,0l0.3-0.1l0.8-0.5
		l0.8-0.5l0.9-0.4l0.7-0.7l0.8-0.5l0.7-0.6l0.9-0.3l0.8-0.5l0.9-0.3l0.5-0.9l0.9-0.4l0.5-0.3c0,0,2-1,2.1-1.2c1.9-0.5,0-0.7,2.3-1.4
		c0.2-0.2,0.5-0.3,0.5-0.6l0.2-0.2l1-0.2l0.6-0.7l1-0.3l0.7-0.7l0.9-0.3l0.7-0.7l0.8-0.5l0.9-0.3l0.6-0.9l1-0.2l0.8-0.6l0.8-0.5
		c0.1-0.1,0.2-0.2,0.2-0.3c0.4-0.7,0-0.4,1.1-1c0,0,0,0,0,0c0.2-0.2,0.2-0.4,0.5-0.4c0,0,0.1,0,0.1,0c0.8,0,1.3-1.3,2.3-1.3l0.4-0.1
		l0.6-0.8l1-0.1l0.8-0.5l0.7-0.6l0.7-0.6l0.9-0.3l0.7-0.6l0.8-0.4l0.8-0.6l-0.6-0.9l-1-0.4l-0.6-0.7l-0.5-0.8l-0.6-0.7l-1-0.3
		l-0.7-0.6l-0.5-0.8l-0.7-0.6L77.1,38l-0.8-0.5L75.5,37l-0.6-0.7l-0.7-0.6L73.4,35l-0.9-0.4L72,33.7l-0.9-0.5l-0.6-0.7l-0.8-0.5
		L69,31.3L68.1,31l-0.6-0.8l-0.9-0.4l-0.9-0.3L65,28.8l-0.7-0.7l-0.8-0.5l-1-0.3l-0.8-0.6l-0.8-0.5l-0.8-0.5l-0.8-0.5l-0.8-0.4
		l-0.7-0.8l-0.9-0.3L56,23.5l-0.8-0.5l-0.9-0.3l-1-0.1l-0.8-0.7l-1,0l-0.9-0.4l-0.9-0.3l-1,0L47.8,21l-0.9,0.1L46.1,21l-0.2-0.1
		l-0.7,0l-0.3,0L44,21.1l-1,0.1l-0.8,0.5l-1,0l-0.8,0.7l-0.9,0.3l-0.9,0.3l-1,0.1l-0.8,0.6l-0.8,0.5l-0.8,0.5l-1,0.2l-0.7,0.6
		l-0.8,0.5l-0.9,0.3l-0.6,0.8l-1,0.2l-0.7,0.7l-0.8,0.5l-0.6,0.7l-1,0.2l-0.5,0.9L25.7,31l-0.8,0.5L24.1,32l-0.8,0.5l-0.6,0.8
		l-1,0.3l-0.5,1l-0.8,0.6l-0.7,0.6l-0.9,0.5l-0.7,0.6l-0.8,0.5l-0.7,0.7L16,38.7l-0.6,0.8l-0.7,0.6L14,40.7l-0.8,0.6l-0.5,0.8
		l-0.9,0.4l-0.6,0.8l-0.7,0.6l-0.6,0.6l0.8,0.4l0.8,0.5l0.7,0.7l0.8,0.5l0.9,0.3l0.6,0.8l0.9,0.4l0.8,0.4l0.6,0.7l0.4,0.1
		c0,0,0,0,0,0c0.2,0.2,0.4,0.3,0.5,0.5c0,0,0,0.1,0,0.1c1.2,0.8,0.8-0.1,1.5,0.9c0.7,0.9,1.3,0.5,1.7,1c0.1,0,0.2,0.4,0.5,0.5
		c0,0,0,0,0,0l1,0.2l0.8,0.5l0.8,0.5l0.7,0.6l0.8,0.5l0.7,0.6l0.7,0.7l0.8,0.5l0.9,0.3l0.9,0.4l0.7,0.7l0.7,0.7L31.3,58.5z M47,32
		l0.3-0.9l0.6-0.7l0.7-0.6l0.9-0.3l0.9-0.1l0.9,0.2l0.9,0.2l0.7,0.7l0.6,0.7l0.3,0.9l0.2,0.9l-0.2,0.9l-0.3,0.9l-0.7,0.7l-0.7,0.6
		l-0.8,0.4l-0.9,0.1l-0.9-0.2L48.6,36l-0.7-0.6l-0.5-0.8l-0.4-0.8l0-0.9L47,32z M33.2,31.9l0.3-0.9l0.6-0.7l0.8-0.5l0.8-0.4l0.9-0.1
		l0.9,0l0.8,0.4l0.8,0.5l0.6,0.8L40,32l0.2,0.9L40,33.8l-0.3,0.9l-0.6,0.7l-0.7,0.6l-0.8,0.4l-0.9,0.1l-0.9,0l-0.8-0.4l-0.8-0.5
		l-0.5-0.8l-0.3-0.9l-0.1-0.9L33.2,31.9z"/>
</g>
<g>
	<polygon class="st2" points="46.1,21 46.2,20.9 46.6,20 47.2,19.2 48.1,18.7 48.8,18 49.4,17.2 49.7,16.2 50.6,15.6 51.1,14.7 
		51.9,14 50.8,14.2 49.8,14.1 48.8,13.9 47.8,13.8 46.7,14.1 47.2,13.1 47.7,12.2 47.9,11.3 48,10.3 48.7,9.5 49,8.5 49.3,7.5 
		48.6,8.3 48,9 47.4,9.6 46.7,10.3 46.2,11 45.7,11.8 45,12.4 44.3,13.1 43.7,13.8 43.2,14.5 42.5,15.1 41.7,16 42.8,16.1 
		43.7,16.1 44.6,15.9 45.5,16.2 46.3,15.9 47.4,15.9 46.9,16.9 46.4,17.8 46.3,18.8 46,19.7 45.4,20.5 45.2,20.9 45.9,20.9 	"/>
	<path class="st3" d="M39.8,31.1l-0.6-0.8l-0.8-0.5l-0.8-0.4l-0.9,0l-0.9,0.1l-0.8,0.4l-0.8,0.5l-0.6,0.7l-0.3,0.9l-0.1,0.9l0.1,0.9
		l0.3,0.9l0.5,0.8l0.8,0.5l0.8,0.4l0.9,0l0.9-0.1l0.8-0.4l0.7-0.6l0.6-0.7l0.3-0.9l0.2-0.9L40,32L39.8,31.1z M37.1,33.7l-0.7,0.6
		l-0.9,0.3l-0.9-0.2l-0.6-0.7l-0.3-0.9L34,32l0.7-0.6l0.9-0.2l0.9,0.2l0.7,0.7l0.2,0.9L37.1,33.7z"/>
	<path class="st3" d="M53.5,31.1l-0.6-0.7l-0.7-0.7l-0.9-0.2l-0.9-0.2l-0.9,0.1l-0.9,0.3L48,30.4l-0.6,0.7L47,32l-0.1,0.9l0,0.9
		l0.4,0.8l0.5,0.8l0.7,0.6l0.9,0.3l0.9,0.2l0.9-0.1l0.8-0.4l0.7-0.6l0.7-0.7l0.3-0.9l0.2-0.9L53.8,32L53.5,31.1z M50.5,33.7
		l-0.6,0.7L49,34.6l-0.9-0.2l-0.7-0.6l-0.2-0.9l0.3-0.9l0.7-0.6l0.9-0.2l0.9,0.2l0.7,0.6l0.2,0.9L50.5,33.7z"/>
	<polygon class="st4" points="36.5,31.3 35.6,31.1 34.7,31.3 34,32 33.8,32.9 34.1,33.7 34.7,34.4 35.6,34.7 36.4,34.4 37.1,33.7 
		37.3,32.9 37.1,32 	"/>
	<polygon class="st4" points="49.9,31.3 49,31.1 48.1,31.3 47.5,32 47.2,32.9 47.4,33.8 48.1,34.4 49,34.6 49.9,34.4 50.5,33.7 
		50.8,32.9 50.6,32 	"/>
</g>
<path class="st1" d="M74,57.9l-1.1-0.3l-1-0.6l-1.7-0.9L69,55.8l-0.8-1.3l-0.2-0.9l0.2-1.5l1.5-0.4l0.9,0l0.2,0l1.5,0.3l0.8,1.2
	l1,0.5l-0.1,0l0.9-1l1.2-0.8l0.4-1.3l0.7-1.1l0.3-1.3l0.4-1.3l0.4-1.3l0.5-1.3l0.3-1.3l0-1.4l0.4-1.4l-0.8-1.6l0.3-1.1l0.1-0.4
	l0.1-1.3l-0.2-1.3L79,33l0.2-1.3l-0.2-1.3l0-1.3l0.2-1.3l-0.5-1.2l0.2-1.4l-0.7-1.2L78,22.4l-0.5-1.6l0.4-0.2l-0.4-1.4l0.6-1.3
	l-0.3-1.5l0.4-1.4l0.8-1.2l0.4-1.3l0.4-1.3l-0.1-0.3l-0.2-1.3l1-0.9l1.3-0.4L83.2,9l0.1,1.3l0.5,1.2L83,12.6L82.9,14l-0.6,1.2
	l-0.4,1.3L81.8,18l-0.4,1.4l0.1,1.4l0.3,1.1L81.6,23l1,1.1l0,1.4l0.4,1.3l-0.2,1.4l0,1.3l0,1.3l0.4,1.3l-0.4,1.3l-0.1,1.3l0.2,1.3
	l0.1,1.3l0,0.6l0.3,0.4l0.4,1.3l-0.6,1.3l-0.2,1.3l-0.2,1.3l0.2,1.4l-0.3,1.3l-0.4,1.3l-0.8,1.1L80.8,50l-0.4,1.2l-0.7,1.1l-0.2,1.4
	l-0.9,1l-1,0.9l-0.9,1l-1.2,0.7L74,57.9z M73.7,53.5l-0.1,0.3L73.7,53.5z"/>
<polygon class="st1" points="21,57.5 19.7,57.4 18.4,57.1 17.3,56.3 16.2,55.5 15,54.8 14,53.9 13.5,52.6 12.8,51.4 12.2,50.2 
	11.8,48.9 11.1,47.7 10.5,46.5 10.7,45 10.1,43.8 10.2,42.4 10.1,41.1 10.2,39.7 9.9,38.4 10.6,37.9 10.4,37.7 10.5,36.6 11.5,36 
	11.2,34.8 11.4,33.4 11.4,32.1 11,30.8 11.3,29.5 11.5,28.1 11.4,26.8 11.5,25.5 11.8,24.2 12,22.9 12,21.8 12.2,20.8 11.9,19.5 
	11.7,18.2 12.1,16.8 11.5,15.6 11.6,14.2 10.9,13.1 10.3,11.8 9.3,11.8 8.9,10.2 9.3,8.7 10.8,8.5 12.3,8.5 12.7,8.9 13.5,10.1 
	14.5,11.1 14.6,12.5 15,13.8 15.7,15.1 15.4,16.5 16,17.8 16.2,19.2 16.1,20.6 16.2,20.8 16.1,22.4 15.7,23.9 15.1,25.2 14.9,26.5 
	15.1,27.9 14.9,29.3 14.9,30.6 15.2,32 15.2,33.3 15.4,34.7 15.2,36 15.4,37.4 15,38.6 14,40.2 13.9,40.2 14.1,41.5 13.9,42.9 
	14.1,44.2 14.9,45.4 15.2,46.6 15.2,48.1 16.1,49.1 16.9,50.2 17.6,51.3 18.5,52.2 19.4,53.1 20.6,53.7 20.8,53.6 20.6,53.4 
	21.2,53.4 21.9,52.2 23.1,51.3 23.8,51.5 25.1,52 25.8,53.1 26.1,53.4 25.8,54.8 24.6,55.6 23.8,56.1 22.7,57.3 22.1,57.1 "/>
</svg>
