<?xml version="1.0" encoding="utf-8"?>
<!-- Generator: Adobe Illustrator 25.4.1, SVG Export Plug-In . SVG Version: 6.00 Build 0)  -->
<svg version="1.1" id="레이어_1" xmlns="http://www.w3.org/2000/svg" xmlns:xlink="http://www.w3.org/1999/xlink" x="0px"
	 y="0px" width="93.7px" height="93.7px" viewBox="0 0 93.7 93.7" style="enable-background:new 0 0 93.7 93.7;"
	 xml:space="preserve">
<style type="text/css">
	.st0{fill:#00ED6B;}
	.st1{fill:#FFF200;}
	.st2{fill:#F1F1F2;}
	.st3{fill:#302F31;}
	.st4{fill:#4C4C4E;}
</style>
<polygon class="st0" points="46.9,93.5 46,93.4 45,93.7 44.1,93.4 43.1,93.6 42.1,93.6 41.2,93.4 40.3,93.1 39.3,93.2 38.4,92.9 
	37.4,92.9 36.5,92.5 35.5,92.5 34.6,92.3 33.8,91.6 32.9,91.4 32,91 31.1,90.8 30.1,90.7 29.3,90.1 28.3,90 27.6,89.4 26.6,89.2 
	25.9,88.4 24.9,88.3 24.2,87.6 23.4,87.1 22.6,86.6 21.6,86.4 20.9,85.8 20.1,85.2 19.4,84.5 18.5,84.1 17.8,83.4 17,83 16.2,82.4 
	15.5,81.8 14.9,81 14.1,80.5 13.7,79.6 12.8,79.1 12.2,78.3 11.6,77.6 11.1,76.8 10.5,76 9.9,75.3 9.2,74.6 8.7,73.8 8.3,72.9 
	7.5,72.3 7.2,71.4 6.8,70.5 6.1,69.8 5.8,68.9 5.2,68.2 5,67.2 4.5,66.4 4.1,65.5 3.8,64.6 3.3,63.8 3.1,62.8 2.5,62 2.2,61.1 
	2.3,60.1 2,59.2 1.4,58.4 1.5,57.4 1.3,56.4 1.2,55.5 1,54.6 0.8,53.6 0.4,52.7 0.2,51.8 0.2,50.8 0.3,49.9 0.1,48.9 0.2,48 0.4,47 
	0.5,46.1 0.1,45.1 0.4,44.2 0.2,43.2 0.3,42.2 0.7,41.3 0.5,40.3 0.6,39.4 1,38.5 1.1,37.5 1.2,36.6 1.5,35.7 2,34.8 2,33.8 2.5,33 
	2.8,32.1 3.1,31.2 3.5,30.3 3.6,29.3 4.2,28.5 4.6,27.7 4.7,26.7 5.4,26 5.7,25 6.3,24.3 6.6,23.4 7.2,22.6 7.9,21.9 8,20.9 
	8.8,20.3 9.2,19.3 9.8,18.7 10.6,18.1 11,17.2 11.7,16.5 12.4,15.9 12.9,15 13.7,14.5 14.4,13.9 15,13.1 15.6,12.3 16.4,11.9 
	17.2,11.2 17.8,10.6 18.6,10 19.4,9.4 20.2,9 20.9,8.2 21.7,7.9 22.4,7.1 23.3,6.8 24.2,6.4 24.9,5.8 25.9,5.6 26.6,4.9 27.6,4.7 
	28.5,4.3 29.3,3.8 30.2,3.5 31,2.9 32,3 32.9,2.7 33.8,2.3 34.7,2.1 35.6,1.7 36.5,1.6 37.5,1.4 38.4,1.2 39.3,0.8 40.3,1 41.2,0.4 
	42.2,0.8 43.1,0.5 44,0.2 45,0.4 45.9,0.4 46.9,0.3 47.8,0.5 48.8,0.1 49.7,0.7 50.7,0.7 51.7,0.4 52.6,0.8 53.6,0.7 54.5,0.8 
	55.4,1.3 56.4,1.3 57.3,1.4 58.2,1.7 59.1,2 60,2.4 61,2.5 61.9,2.7 62.8,3 63.7,3.3 64.6,3.7 65.4,4.3 66.3,4.5 67.1,5.1 67.9,5.5 
	68.9,5.7 69.6,6.4 70.5,6.8 71.3,7.3 72.2,7.6 73,8.2 73.7,8.8 74.5,9.3 75.4,9.8 75.9,10.6 76.8,11.1 77.3,11.9 78.1,12.5 78.9,13 
	79.7,13.5 80.3,14.3 80.8,15.1 81.7,15.6 82.3,16.3 82.6,17.3 83.6,17.8 84,18.6 84.7,19.3 85.2,20.1 85.7,20.9 86,21.9 86.7,22.5 
	87.3,23.3 87.6,24.2 88,25.1 88.4,25.9 89.1,26.7 89.4,27.6 89.9,28.4 90.1,29.4 90.3,30.3 90.8,31.1 91.2,32 91.2,33 91.7,33.9 
	91.8,34.8 92.3,35.7 92.2,36.7 92.6,37.6 92.9,38.5 93,39.4 93,40.4 93.2,41.3 93.5,42.2 93.5,43.2 93.6,44.1 93.6,45.1 93.6,46 
	93.7,47 93.5,48 93.3,48.9 93.7,49.9 93.3,50.8 93.1,51.8 93.2,52.7 93.2,53.7 93.1,54.6 92.8,55.6 92.7,56.5 92.6,57.5 92.1,58.3 
	91.7,59.2 91.8,60.2 91.2,61.1 91.2,62 91,63 90.3,63.8 90,64.6 89.6,65.5 89.1,66.4 88.7,67.2 88.3,68.1 88.2,69.1 87.4,69.7 
	86.9,70.6 86.5,71.4 86,72.2 85.4,73 84.8,73.8 84.3,74.6 83.8,75.3 83.4,76.3 82.6,76.8 82,77.6 81.3,78.2 80.8,79.1 80.1,79.7 
	79.6,80.6 78.9,81.3 78.2,81.8 77.3,82.3 76.6,82.9 76,83.7 75.1,84.1 74.4,84.8 73.5,85.2 72.9,86 72,86.4 71.3,87 70.5,87.5 
	69.6,88 68.7,88.2 67.8,88.5 67,89.1 66.3,89.4 65.7,88.8 65.2,88 65.2,87.2 65.8,86.6 66.8,86.4 67.5,85.7 68.5,85.6 69.2,84.9 
	70.1,84.4 71,84.2 71.7,83.5 72.6,83 73.1,82.2 73.9,81.7 74.8,81.3 75.5,80.6 76.1,79.8 76.9,79.3 77.6,78.7 78.4,78.1 78.9,77.3 
	79.7,76.6 80,75.7 80.8,75.1 81.3,74.3 82,73.6 82.7,73 83.3,72.2 83.7,71.3 84.2,70.5 84.8,69.8 85.1,68.8 85.4,67.9 86.1,67.2 
	86.6,66.4 86.8,65.4 87.1,64.5 87.6,63.7 87.9,62.8 88.2,61.9 88.5,61 88.8,60.1 89.3,59.3 89.7,58.4 89.8,57.4 89.7,56.4 
	90.3,55.6 90.1,54.6 90.6,53.7 90.6,52.7 90.8,51.8 90.9,50.8 90.8,49.9 91.2,48.9 90.9,48 91,47 90.9,46.1 91,45.1 90.9,44.2 
	90.9,43.2 90.6,42.3 90.6,41.3 90.5,40.4 90.2,39.5 89.9,38.6 89.9,37.6 89.9,36.6 89.3,35.8 89.3,34.8 89,33.9 88.7,33 88.6,32.1 
	87.9,31.3 87.8,30.3 87.2,29.5 87,28.6 86.4,27.9 85.9,27 85.6,26.1 85.3,25.2 84.6,24.5 84.1,23.7 83.9,22.7 83.1,22.1 82.5,21.4 
	81.9,20.6 81.4,19.9 81.1,18.9 80.2,18.3 79.7,17.5 78.9,17 78.2,16.4 77.6,15.6 77,14.9 76.2,14.3 75.5,13.7 75,12.9 74.2,12.3 
	73.3,11.9 72.6,11.3 71.9,10.6 71.2,10 70.4,9.5 69.5,9.1 68.7,8.6 67.7,8.4 67,7.8 66.2,7.3 65.3,6.9 64.5,6.5 63.5,6.3 62.7,5.7 
	61.7,5.7 60.9,5.1 60,4.8 59.1,4.5 58.2,4.2 57.2,4.3 56.3,3.9 55.4,3.8 54.4,3.8 53.5,3.3 52.6,3.1 51.6,3.3 50.7,3.3 49.8,2.8 
	48.8,3.2 47.8,3.1 46.9,3 45.9,2.8 45,2.9 44,2.9 43.1,2.9 42.2,3.1 41.2,3.3 40.3,3.4 39.4,3.7 38.4,3.6 37.5,3.8 36.6,4.4 
	35.6,4.3 34.8,4.8 33.9,5 32.9,5.3 32.1,5.7 31.2,6.1 30.3,6.2 29.3,6.3 28.5,6.9 27.6,7.2 26.8,7.7 26.1,8.4 25.2,8.8 24.3,9.2 
	23.6,9.8 22.8,10.3 21.9,10.6 21.3,11.4 20.4,11.8 19.7,12.4 18.9,13 18.3,13.7 17.6,14.4 16.9,15 15.9,15.4 15.5,16.3 14.7,16.8 
	14.2,17.7 13.4,18.2 12.8,18.9 12.1,19.6 11.7,20.5 11.2,21.3 10.7,22.1 10.2,22.9 9.6,23.6 8.9,24.3 8.4,25.1 8,26 7.7,26.9 
	7.2,27.7 6.8,28.6 6.4,29.5 6.2,30.4 5.5,31.2 5.4,32.1 4.9,32.9 5,34 4.8,34.9 4.3,35.8 4.2,36.7 3.6,37.5 3.8,38.6 3.3,39.4 
	3.2,40.4 3.4,41.3 3.1,42.3 3.1,43.2 3.1,44.2 2.8,45.1 2.7,46 2.9,47 2.8,48 2.9,48.9 3.2,49.9 3.2,50.8 3.3,51.8 3.3,52.7 
	3.1,53.7 3.3,54.6 3.7,55.5 4,56.5 4.1,57.4 4.4,58.3 4.3,59.3 5,60.1 5.4,61 5.6,61.9 5.8,62.9 6.2,63.8 6.3,64.8 7,65.5 7.3,66.4 
	7.6,67.3 8.3,68 8.7,68.9 9.1,69.8 9.7,70.6 10.2,71.4 10.9,72 11.3,72.9 12,73.6 12.6,74.4 13.1,75.2 13.5,76 14.2,76.8 15,77.3 
	15.7,78 16.3,78.7 17.2,79.2 17.7,80 18.3,80.7 19.3,81.1 20.1,81.6 20.8,82.3 21.4,83.1 22.3,83.5 22.9,84.2 24,84.3 24.8,84.9 
	25.6,85.4 26.3,86 27.2,86.4 28,86.9 28.9,87.4 29.9,87.4 30.7,87.9 31.5,88.4 32.5,88.7 33.3,89.1 34.2,89.4 35.2,89.4 36.2,89.6 
	37,90.2 38.1,89.9 38.9,90.6 39.9,90.7 40.9,90.5 41.8,90.5 42.7,91 43.7,91 44.6,91.1 45.6,91 45.7,90.1 45.6,89.2 45.4,88.2 
	45.6,87.3 45.6,86.3 45.6,85.4 45.7,84.4 45.7,83.5 45.4,82.6 45.5,81.6 45.4,80.7 45.8,79.7 45.4,78.8 45.7,77.8 45.8,76.9 
	45.5,76 45.7,75 45.4,74.1 45.7,73.1 45.8,72.2 45.7,71.2 45.4,70.3 45.8,69.3 45.4,68.4 45.5,67.5 45.4,66.5 45.4,65.6 45.6,64.6 
	45.7,63.7 45.5,62.7 45.8,61.8 45.8,60.8 45.8,60 46.5,60 47.3,60.1 48.4,59.8 48.4,60.9 48.1,61.8 48.1,62.8 48,63.7 48.2,64.7 
	48,65.6 48,66.6 48.3,67.5 48.4,68.5 48.1,69.4 48.4,70.4 48,71.4 48.3,72.3 48.1,73.3 48.2,74.2 48.2,75.2 48,76.1 48,77.1 
	48.2,78 48,79 48,79.9 48.1,80.9 48.4,81.9 48,82.8 48.4,83.8 48.3,84.7 48.4,85.7 48.1,86.6 48,87.6 48.1,88.5 48.2,89.5 
	48.2,90.5 48.5,91.4 48.1,92.4 47.8,93.2 "/>
<polygon class="st1" points="51.9,14.1 50.8,14.3 49.8,14.2 48.8,14 47.8,13.9 46.7,14.2 47.2,13.2 47.7,12.4 47.9,11.4 48,10.4 
	48.8,9.6 49,8.6 49.3,7.6 48.7,8.4 48.1,9.1 47.5,9.8 46.7,10.4 46.3,11.2 45.7,11.9 45,12.5 44.4,13.2 43.8,13.9 43.2,14.6 
	42.5,15.2 41.7,16.1 42.8,16.2 43.7,16.2 44.6,16 45.5,16.3 46.4,16 47.4,16 46.9,17 46.4,17.9 46.3,18.9 46.1,19.8 45.4,20.6 
	45.1,21.5 44.8,22.6 45.4,21.6 46.2,21 46.6,20.1 47.2,19.3 48.1,18.8 48.8,18.1 49.5,17.3 49.7,16.3 50.6,15.7 51.1,14.8 "/>
<polygon class="st0" points="46.9,21.3 45.9,21 45,21 44.1,21.2 43.1,21.3 42.3,21.9 41.3,21.9 40.5,22.6 39.6,22.9 38.7,23.2 
	37.7,23.4 37,24 36.2,24.5 35.3,25 34.4,25.2 33.7,25.8 32.9,26.4 31.9,26.7 31.3,27.4 30.3,27.6 29.6,28.3 28.8,28.8 28.1,29.5 
	27.1,29.7 26.6,30.6 25.7,31 24.9,31.5 24.1,32.1 23.4,32.6 22.8,33.5 21.8,33.7 21.3,34.7 20.6,35.3 19.8,35.9 19,36.3 18.2,36.9 
	17.4,37.4 16.8,38.1 16.1,38.8 15.5,39.5 14.7,40.1 14.1,40.8 13.3,41.4 12.8,42.2 11.9,42.6 11.3,43.4 10.6,44 9.9,44.6 10.7,45 
	11.5,45.5 12.2,46.2 13,46.6 13.8,47 14.4,47.8 15.3,48.1 16.1,48.5 16.7,49.2 17.7,49.4 18.2,50.3 19.1,50.6 20.2,49.8 19.2,50.5 
	20,50.9 20.6,51.8 21.4,52.3 22.4,52.5 23.2,53 24,53.5 24.7,54.1 25.5,54.6 26.3,55.1 27,55.8 27.8,56.3 28.7,56.6 29.6,57 
	30.2,57.7 30.9,58.4 31.7,58.8 32.6,59.2 33.5,59.6 34.3,60.1 35,60.7 35.7,61.3 36.5,61.9 37.4,62.2 38.2,62.7 39,63.2 39.9,63.6 
	40.5,64.3 41.4,64.6 42.3,65.1 42.8,66 43.8,66.2 44.4,66.9 45.4,67.2 46.1,67.8 46.9,68.2 47.6,67.7 48.5,67.4 49.3,66.9 
	50.1,66.4 51,66 51.7,65.3 52.4,64.8 53.1,64.1 54.1,63.8 54.8,63.3 55.7,63 56.3,62 57.2,61.7 57.9,61.1 58.9,60.9 59.6,60.3 
	60.5,59.9 61.3,59.4 61.9,58.6 62.6,58 63.6,57.8 64.3,57.1 65.2,56.8 65.9,56.2 66.8,55.8 67.5,55.1 68.3,54.6 69.2,54.3 
	69.8,53.5 70.8,53.2 71.5,52.7 72.3,52.2 73,51.5 73.8,51 74.7,50.7 74.7,50.6 75.4,50 76.1,49.4 77.1,49.3 77.6,48.4 78.6,48.3 
	79.4,47.8 80.1,47.2 80.8,46.6 81.7,46.3 82.4,45.7 83.2,45.3 84,44.7 83.4,43.8 82.5,43.5 81.8,42.7 81.3,41.9 80.6,41.2 
	79.6,40.9 78.9,40.3 78.4,39.5 77.7,38.9 77.1,38.1 76.3,37.5 75.4,37.1 74.8,36.3 74.1,35.7 73.4,35.1 72.4,34.7 72,33.8 
	71.1,33.3 70.5,32.6 69.6,32.1 69,31.4 68.1,31 67.5,30.3 66.6,29.8 65.7,29.5 65,28.8 64.3,28.2 63.5,27.7 62.5,27.4 61.7,26.9 
	60.9,26.4 60.1,25.9 59.3,25.4 58.4,25 57.8,24.2 56.9,23.9 56,23.6 55.2,23 54.3,22.7 53.3,22.6 52.5,21.9 51.5,21.9 50.7,21.5 
	49.7,21.3 48.8,21.3 47.8,21.1 "/>
<polygon class="st2" points="40.3,32.9 40.1,33.9 39.8,34.7 39.2,35.4 38.5,36 37.6,36.4 36.7,36.4 35.8,36.4 35,36 34.2,35.5 
	33.7,34.7 33.3,33.8 33.2,32.9 33.3,32 33.6,31.1 34.2,30.4 35,29.9 35.8,29.5 36.7,29.4 37.6,29.5 38.5,29.9 39.2,30.4 39.8,31.2 
	40.1,32 "/>
<polygon class="st2" points="54,32.9 53.9,33.9 53.6,34.7 52.9,35.4 52.2,36 51.4,36.4 50.4,36.6 49.5,36.3 48.6,36.1 47.9,35.5 
	47.4,34.7 47,33.9 46.9,32.9 47.1,32 47.4,31.2 48,30.5 48.7,29.8 49.5,29.5 50.4,29.4 51.3,29.6 52.3,29.8 52.9,30.5 53.5,31.2 
	53.8,32 "/>
<polygon class="st3" points="37.4,32.9 37.2,33.8 36.5,34.5 35.6,34.7 34.7,34.5 34.1,33.8 33.8,32.9 34.1,32 34.7,31.4 35.6,31.2 
	36.5,31.4 37.2,32 "/>
<polygon class="st3" points="50.8,32.9 50.6,33.8 49.9,34.5 49,34.7 48.1,34.5 47.5,33.8 47.2,32.9 47.5,32 48.2,31.4 49,31.2 
	49.9,31.4 50.6,32 "/>
<g>
	<path class="st0" d="M33.3,31.9l0.3-0.9l0.6-0.7l0.8-0.5l0.8-0.4l0.9-0.1h0.9l0.8,0.4l0.8,0.5l0.6,0.8l0.3,0.9l0.2,0.9l-0.2,0.9
		l-0.3,0.9l-0.6,0.7l-0.7,0.6l-0.8,0.4l-0.9,0.1h-0.9L35.1,36l-0.8-0.5l-0.5-0.8l-0.3-0.9l-0.1-0.9L33.3,31.9z M47.1,31.9l0.3-0.9
		l0.6-0.7l0.7-0.6l0.9-0.3l0.9-0.1l0.9,0.2l0.9,0.2l0.7,0.7l0.6,0.7l0.3,0.9l0.2,0.9l-0.2,0.9l-0.3,0.9l-0.7,0.7L52.2,36l-0.8,0.4
		l-0.9,0.1l-0.9-0.2l-1-0.3l-0.7-0.6l-0.5-0.8L47,33.8v-0.9L47.1,31.9z M31.3,58.5c1,0.5-1.6-0.8,1.9,0.8c0.3,0.8,0.7,0.8,1.7,1
		c0,0.1,0,0.2,0,0.3l0,0c0.8,0.8,0.5,0.3,1.4,0.9l0.2,0.1l0.9,0.4l0.8,0.4l0.8,0.5l0.9,0.4l0.6,0.8l0.9,0.3l0.8,0.5l0.5,0.9l1,0.2
		l0.7,0.7l1,0.3l0.1,0.1v0.2l-0.1,0.9l0.4,0.9L45.3,70l0.4,0.9l0.1,0.9l-0.2,0.9L45.3,74l0.3,0.9l-0.2,0.9l0.3,0.9l-0.1,0.9
		l-0.3,0.9l0.4,0.9l-0.4,0.9l0.2,0.9l-0.1,0.9l0.3,0.9l-0.1,0.9v0.9v0.9v0.9l-0.2,0.9l0.2,0.9l0.1,0.9L45.6,91h-0.9l-1-0.1h-1
		l-0.9-0.5h-1l-1,0.2l-1-0.1L38,89.9l-1,0.2l-0.9-0.5l-0.9-0.2h-1L33.3,89l-0.9-0.4l-0.9-0.2l-0.8-0.5l-0.8-0.5l-1-0.1L28,86.9
		l-0.8-0.5L26.3,86l-0.8-0.6l-0.8-0.6l-0.8-0.5l-1.1-0.1l-0.7-0.7l-0.9-0.4l-0.6-0.8L20,81.6l-0.8-0.5l-0.9-0.4L17.6,80l-0.5-0.8
		l-0.8-0.5L15.6,78l-0.7-0.7l-0.8-0.5L13.5,76L13,75.2l-0.5-0.8l-0.6-0.7L11.2,73l-0.3-1l-0.8-0.6l-0.5-0.8L9,69.7l-0.4-0.8L8.2,68
		l-0.7-0.7l-0.3-0.9l-0.4-0.9l-0.6-0.8l-0.2-1l-0.4-0.9l-0.2-1L5.3,61L5,60.1l-0.7-0.8l0.1-1L4,57.4l-0.1-1l-0.3-0.9l-0.4-0.9
		l-0.2-1l0.2-1l0.1-1l-0.1-0.9l-0.1-1l-0.3-0.9l-0.1-1l0.1-1l-0.2-1l0.1-1l0.4-0.9v-1L3.2,42l0.2-0.9l-0.2-1l0.1-0.9l0.5-0.9l-0.2-1
		l0.5-0.9l0.1-0.9l0.5-0.9l0.2-0.9l-0.1-1L5.3,32l0.2-0.9l0.6-0.8l0.3-0.9l0.4-0.9l0.4-0.9l0.6-0.8l0.3-0.9L8.3,25l0.5-0.8l0.7-0.7
		l0.7-0.7l0.4-0.9l0.6-0.8l0.5-0.8l0.4-0.9l0.6-0.7l0.7-0.7l0.8-0.5l0.5-0.9l0.9-0.5l0.4-0.9l0.9-0.4l0.8-0.6l0.7-0.7l0.6-0.7
		l0.7-0.6l0.7-0.6l0.9-0.4l0.6-0.8l0.9-0.3l0.8-0.5L24.3,9l0.9-0.3L26,8.3l0.7-0.7L27.5,7l0.9-0.3l0.8-0.6l1-0.1l0.9-0.2L32,5.4
		L32.9,5l0.9-0.3l0.9-0.2L35.6,4h1l0.9-0.5l0.9-0.2l1,0.1l0.9-0.3L41.2,3h0.9L43,2.8l1-0.1h1l0.9-0.1l1,0.2l0.9,0.1l1,0.1l1-0.3
		l0.9,0.5h1l1-0.2l0.9,0.2l0.9,0.5h1l0.9,0.1l0.9,0.4h1l0.9,0.3L60,4.6L60.9,5l0.8,0.5h1l0.8,0.6l1,0.2l0.9,0.4l0.9,0.4L67,7.6
		l0.7,0.7l1,0.2L69.5,9l0.9,0.4l0.8,0.5l0.7,0.6l0.7,0.7l0.7,0.6l0.9,0.4l0.8,0.5l0.5,0.8l0.7,0.7l0.8,0.6l0.6,0.7l0.6,0.7l0.7,0.6
		l0.8,0.6l0.5,0.8l0.8,0.6l0.3,1l0.5,0.8l0.6,0.7l0.6,0.8l0.8,0.6l0.2,1l0.5,0.8l0.7,0.7l0.3,0.9l0.3,0.9l0.4,0.9l0.6,0.8l0.2,0.9
		l0.6,0.8l0.1,1l0.7,0.8l0.1,1l0.4,0.9l0.3,0.9v1l0.6,0.8v1v1l0.3,0.9l0.2,0.9l0.2,0.9l-0.1,1l0.3,0.9l0.1,0.9v1L91,46v0.9v1l0.2,1
		l-0.3,0.9l0.1,1l-0.2,0.9l-0.1,0.9v1l-0.5,0.9l0.2,1l-0.6,0.9v1l-0.1,1l-0.3,0.9L88.8,60l-0.3,0.9l-0.3,0.9l-0.3,0.9l-0.3,0.9
		l-0.4,0.8l-0.3,0.9l-0.2,1l-0.5,0.8l-0.7,0.7l-0.3,0.9l-0.3,0.9l-0.6,0.8l-0.5,0.8l-0.4,0.9l-0.6,0.8l-0.7,0.7l-0.7,0.6L80.9,75
		l-0.8,0.6l-0.4,0.9L79,77.2L78.4,78l-0.8,0.6L77,79.3l-0.8,0.5l-0.6,0.8l-0.7,0.7L74,81.6l-0.8,0.5L72.6,83l-0.9,0.4L71,84.1
		l-1,0.3l-0.8,0.5l-0.7,0.7l-1,0.1l-0.7,0.7l-1,0.2l-0.6,0.6v0.9l0.4,0.8l0.7,0.6l0.7-0.2l0.8-0.6l0.9-0.3l1-0.2l0.8-0.5l0.8-0.5
		l0.8-0.6L73,86l0.6-0.8l0.9-0.4l0.7-0.7l0.9-0.4l0.5-0.9l0.7-0.6l0.9-0.4l0.8-0.6l0.7-0.7l0.4-0.9l0.7-0.6l0.5-0.8l0.7-0.7l0.6-0.8
		l0.8-0.5l0.3-0.9l0.6-0.8l0.5-0.8l0.6-0.8l0.6-0.8l0.5-0.8l0.4-0.9l0.5-0.8l0.8-0.6v-1.1l0.4-0.9l0.4-0.8l0.4-0.9l0.4-0.9l0.3-0.9
		l0.7-0.8l0.2-0.9l0.1-1l0.5-0.8v-1l0.3-0.9l0.5-0.9l0.1-1l0.1-0.9l0.3-0.9v-1l0.1-1l-0.1-1l0.2-0.9l0.4-0.9l-0.4-1l0.2-0.9l0.1-1
		l-0.1-1v-1v-1l-0.1-0.9v-1l-0.3-0.9l0.1-0.6l0.1-1l-0.2-0.9l-0.3-0.9l-0.3-0.9l0.1-1l-0.5-0.9l-0.2-0.9L91.2,33v-1l-0.4-0.9
		l-0.5-0.8l-0.2-1l-0.3-0.9l-0.5-0.8L89,26.7L88.3,26L88,25l-0.4-0.9l-0.3-0.9l-0.6-0.8L86,21.8l-0.3-0.9L85.2,20l-0.5-0.8L84,18.5
		l-0.5-0.9l-0.9-0.5l-0.3-1l-0.7-0.7L80.9,15l-0.6-0.8l-0.6-0.8l-0.8-0.5l-0.8-0.6l-0.8-0.6l-0.6-0.8l-0.9-0.4l-0.5-0.9l-0.8-0.5
		l-0.8-0.5L73,8l-0.8-0.6l-1-0.2l-0.8-0.5l-0.9-0.4l-0.7-0.7l-1-0.2L66.9,5l-0.8-0.6l-1-0.2l-0.8-0.6l-0.9-0.4l-0.9-0.3l-0.9-0.3
		L61,2.3l-1-0.1l-0.9-0.4l-0.9-0.3l-0.9-0.3l-0.9-0.1h-1l-0.9-0.5l-0.9-0.2l-1,0.2l-0.9-0.4l-1,0.3h-0.9l-1-0.5l-1,0.3l-1-0.1h-1
		l-1,0.1l-1-0.2l-0.9,0.3L42,0.7l-1-0.4l-0.9,0.6l-1-0.3L38.4,1l-0.9,0.2l-0.9,0.2l-0.9,0.2l-0.9,0.3l-0.9,0.2L33,2.5l-1,0.4
		l-1.1-0.1l-0.8,0.6l-0.9,0.3l-0.8,0.5l-0.9,0.4l-1,0.2l-0.7,0.7l-1,0.2l-0.7,0.7l-0.9,0.3L22.3,7l-0.6,0.8l-0.9,0.4l-0.7,0.7
		l-0.9,0.4l-0.7,0.6l-0.8,0.5L17,11.1l-0.7,0.6l-0.9,0.5l-0.6,0.7l-0.5,0.8l-0.7,0.6l-0.8,0.6l-0.5,0.8l-0.7,0.6L10.9,17l-0.4,0.9
		l-0.8,0.6L9,19.2l-0.3,0.9l-0.8,0.6l-0.2,1l-0.6,0.7l-0.6,0.8l-0.4,0.9l-0.6,0.8l-0.3,0.9l-0.7,0.7l-0.1,1L4,28.3l-0.6,0.8l-0.1,1
		l-0.3,1L2.8,32l-0.3,0.9L2,33.7v1l-0.5,0.9l-0.3,0.9l-0.1,1l-0.2,0.9l-0.4,0.9l-0.1,1l0.2,1l-0.4,0.9l-0.1,0.9l0.2,1L0,45l0.4,1
		v0.9l-0.3,1l-0.1,1l0.2,0.9v1v1l0.1,0.9l0.4,0.9l0.2,0.9l0.2,0.9l0.1,1l0.2,0.9l-0.1,1l0.6,0.8L2.2,60v1l0.2,1L3,62.8l0.2,1
		l0.5,0.8l0.4,0.9l0.3,0.9l0.5,0.8l0.2,1l0.7,0.7L6,69.8l0.7,0.7L7,71.4l0.3,1L8.2,73l0.3,0.9l0.6,0.8l0.6,0.7l0.7,0.7l0.6,0.8
		l0.5,0.8l0.6,0.7l0.6,0.8l0.9,0.5l0.5,0.9l0.8,0.6l0.6,0.8l0.8,0.6l0.8,0.6l0.8,0.5l0.7,0.7l0.9,0.4l0.7,0.7L21,86l0.7,0.7l1,0.2
		l0.8,0.5l0.8,0.5l0.7,0.7l1,0.1l0.7,0.8l1,0.1l0.8,0.6l1,0.2l0.8,0.5l1,0.1l0.7,0l0.9,0.4l1,0.1l0.8,0.7l0.9,0.2h1l0.9,0.4h1
		l0.9,0.3l1-0.1l0.9,0.4l0.9,0.1l1,0.1l1-0.3l0.9,0.3l1-0.2l0.9,0.1l0.9-0.3l0.3-0.9l0.4-1l-0.2-1l-0.1-1l-0.1-1l-0.1-1l0.2-1l0.3-1
		l-0.1-1l0.2-1l-0.4-1l0.4-1l-0.4-1v-1L48,79l0.3-1L48,77l0.1-1l0.2-1v-1l-0.1-1l0.3-1l-0.4-1l0.4-1l-0.3-1l0.3-1l-0.2-1l0,0
		l0.3-0.1l0.8-0.5l0.8-0.5l0.9-0.4l0.7-0.7l0.8-0.5l0.7-0.6l0.9-0.3l0.8-0.5l0.9-0.3l0.5-0.9l0.9-0.4l0.5-0.3c0,0,2-1,2.1-1.2
		c1.9-0.5,0-0.7,2.3-1.4c0.2-0.2,0.5-0.3,0.5-0.6l0.2-0.2l1-0.2l0.6-0.7l1-0.3l0.7-0.7l0.9-0.4l0.7-0.7l0.8-0.5l0.9-0.3l0.6-0.9
		l1-0.2l0.8-0.6l0.8-0.5c0.1-0.1,0.2-0.2,0.2-0.3c0.4-0.7,0-0.4,1.1-1l0,0c0.2-0.2,0.2-0.4,0.5-0.4h0.1c0.8,0,1.3-1.3,2.3-1.3
		l0.4-0.1l0.6-0.8l1-0.1l0.8-0.5l0.7-0.6l0.7-0.6l0.9-0.3l0.7-0.6l0.8-0.4l0.8-0.6l-0.6-0.9l-1-0.4L82.1,42l-0.5-0.8L81,40.5l-1-0.3
		l-1,0l-0.5-0.8l-0.7-0.6L77.1,38l-0.8-0.5L75.5,37l-0.6-0.7l-0.7-0.6L73.4,35l-0.9-0.4L72,33.7l-0.9-0.5l-0.6-0.7L69.7,32L69,31.3
		l-0.9-0.4l-0.6-0.8l-0.9-0.4l-0.9-0.3L65,28.7L64.3,28l-0.8-0.5l-1-0.3l-0.8-0.6l-0.8-0.5l-0.8-0.5l-0.8-0.5l-0.8-0.4l-0.7-0.8
		l-0.9-0.3L56,23.5L55.2,23l-0.9-0.3l-1-0.1l-0.8-0.7h-1l-0.9-0.4l-0.9-0.3h-1L47.8,21l-0.9,0.1L46.1,21l-0.2-0.1h-0.7h-0.3L44,21.1
		l-1,0.1l-0.8,0.5h-1l-0.8,0.7l-0.9,0.3L38.6,23l-1,0.1l-0.8,0.6L36,24.2l-0.8,0.5l-1,0.2l-0.7,0.6L32.7,26l-0.9,0.3l-0.6,0.8
		l-1,0.2L29.5,28l-0.8,0.5l-0.6,0.7l-1,0.2l-0.5,0.9l-0.9,0.4l-0.8,0.5L24.1,32l-0.8,0.5l-0.6,0.8l-1,0.3l-0.5,1l-0.8,0.6l-0.7,0.6
		l-0.9,0.5l-0.7,0.6l-0.8,0.5L16.7,38L16,38.7l-0.6,0.8l-0.7,0.6L14,40.7l-0.8,0.6l-0.5,0.8l-0.9,0.4l-0.6,0.8l-0.7,0.6l-0.6,0.6
		l0.8,0.4l0.8,0.5l0.7,0.7l0.8,0.5l0.9,0.3l0.6,0.8l0.9,0.4l0.8,0.4l0.6,0.7l0.4,0.1l0,0c0.2,0.2,0.4,0.3,0.5,0.5v0.1
		c1.2,0.8,0.8-0.1,1.5,0.9c0.7,0.9,1.3,0.5,1.7,1c0.1,0,0.2,0.4,0.5,0.5l0,0l1,0.2l0.8,0.5l0.8,0.5l0.7,0.6l0.8,0.5l0.7,0.6l0.7,0.7
		l0.8,0.5l0.9,0.3l0.9,0.4l0.7,0.7l0.7,0.7H31.3z"/>
</g>
<rect x="31.9" y="28.6" class="st0" width="23.6" height="8.6"/>
<polygon class="st1" points="46.1,21 46.2,20.9 46.6,19.9 47.2,19.2 48.1,18.7 48.8,18 49.5,17.2 49.7,16.2 50.6,15.6 51.1,14.7 
	51.9,14 50.8,14.2 49.8,14.1 48.8,13.8 47.8,13.7 46.7,14 47.2,13.1 47.7,12.2 47.9,11.3 48,10.2 48.7,9.5 49,8.5 49.3,7.5 
	48.7,8.3 48.1,8.9 47.4,9.6 46.7,10.2 46.2,11 45.7,11.8 45,12.4 44.4,13.1 43.8,13.8 43.2,14.5 42.5,15.1 41.7,15.9 42.8,16.1 
	43.7,16.1 44.6,15.8 45.5,16.2 46.4,15.9 47.4,15.9 46.9,16.9 46.4,17.7 46.3,18.8 46.1,19.7 45.4,20.5 45.2,20.9 45.9,20.9 "/>
<rect x="34.2" y="30.3" transform="matrix(0.7071 -0.7071 0.7071 0.7071 -11.8318 34.1049)" class="st4" width="2.1" height="2.1"/>
<rect x="35.7" y="31.8" transform="matrix(0.7071 -0.7071 0.7071 0.7071 -12.4556 35.6048)" class="st4" width="2.1" height="2.1"/>
<rect x="37.2" y="33.3" transform="matrix(0.7071 -0.7071 0.7071 0.7071 -13.0795 37.1049)" class="st4" width="2.1" height="2.1"/>
<rect x="37.2" y="30.3" transform="matrix(0.7071 -0.7071 0.7071 0.7071 -10.9556 36.2288)" class="st4" width="2.1" height="2.1"/>
<rect x="34.2" y="33.3" transform="matrix(0.7071 -0.7071 0.7071 0.7071 -13.9556 34.981)" class="st4" width="2.1" height="2.1"/>
<rect x="47.9" y="30.3" transform="matrix(0.7071 -0.7071 0.7071 0.7071 -7.838 43.811)" class="st4" width="2.1" height="2.1"/>
<rect x="49.4" y="31.8" transform="matrix(0.7071 -0.7071 0.7071 0.7071 -8.4619 45.3109)" class="st4" width="2.1" height="2.1"/>
<rect x="50.9" y="33.3" transform="matrix(0.7071 -0.7071 0.7071 0.7071 -9.0858 46.811)" class="st4" width="2.1" height="2.1"/>
<rect x="50.9" y="30.3" transform="matrix(0.7071 -0.7071 0.7071 0.7071 -6.962 45.9349)" class="st4" width="2.1" height="2.1"/>
<rect x="47.9" y="33.3" transform="matrix(0.7071 -0.7071 0.7071 0.7071 -9.9618 44.6871)" class="st4" width="2.1" height="2.1"/>
<path class="st0" d="M18.9,49.1l0.1-0.3L18.9,49.1z M18.6,44.7l1.1,0.3l1,0.6l1.7,0.9l1.2,0.3l0.8,1.3l0.2,0.9l-0.2,1.5L23,51h-0.9
	h-0.2l-1.5-0.3l-0.8-1.2l-1-0.5h0.1l-0.9,1l-1.2,0.8l-0.4,1.3l-0.7,1.1L15,54.6l-0.4,1.3l-0.4,1.3l-0.5,1.3l-0.3,1.3v1.4L13,62.6
	l0.8,1.6l-0.3,1.1l-0.1,0.4L13.3,67l0.2,1.3l0.2,1.3l-0.2,1.3l0.2,1.3v1.3l-0.2,1.3L14,76l-0.2,1.4l0.7,1.2l0.1,1.7l0.5,1.6
	l-0.4,0.2l0.4,1.4l-0.6,1.3l0.3,1.5l-0.4,1.4l-0.8,0.2l-0.4,1.3l-0.4,1.3l0.1,0.3l0.2,1.3l-1,0.9l-1.3,0.4l-1.3-0.7l-0.1-1.3
	l-0.5-1.2L9.6,89l0.1-1.4l0.6-0.2l0.4-1.3l0.1-1.4l0.4-1.4l-0.1-1.4l-0.3-1.1l0.1-1.2l-1-1.1v-1.4l-0.4-1.3l0.2-1.4v-1.3v-1.3
	l-0.4-1.3L9.8,69l0.1-1.3l-0.2-1.3L9.6,65v-0.6L9.3,64L9,62.7l0.6-1.3l0.2-1.3l0.2-1.3l-0.2-1.4l0.3-1.3l0.4-1.3l0.8-1.1l0.6-1.2
	l0.4-1.2l0.7-1.1l0.2-1.4l0.9-1l1-0.9l0.9-1l1.2-0.7L18.6,44.7z"/>
<polygon class="st0" points="71.6,43.4 72.9,43.5 74.3,43.9 75.4,44.7 76.5,45.5 77.6,46.2 78.7,47.1 79.2,48.4 79.8,49.6 
	80.5,50.8 80.8,52.1 81.5,53.2 82.1,54.5 81.9,55.9 82.5,57.2 82.4,58.5 82.5,59.9 82.5,61.2 82.7,62.5 82,63 82.3,63.2 82.1,64.4 
	81.1,64.9 81.5,66.2 81.3,67.5 81.2,68.9 81.6,70.2 81.3,71.5 81.1,72.8 81.2,74.1 81.2,75.5 80.9,76.7 80.7,78 80.6,79.1 
	80.5,80.2 80.7,81.5 80.9,82.8 80.5,84.1 81.2,85.4 81.1,86.7 81.8,87.9 82.3,89.2 83.3,89.2 83.8,90.7 83.3,92.2 81.9,92.4 
	80.3,92.5 80,92 79.1,90.9 78.2,89.9 78,88.4 77.6,87.1 76.9,85.9 77.3,84.4 76.6,83.1 76.4,81.7 76.6,80.4 76.4,80.2 76.5,78.6 
	76.9,77 77.6,75.8 77.7,74.4 77.6,73.1 77.7,71.7 77.8,70.3 77.5,69 77.4,67.6 77.2,66.3 77.4,64.9 77.3,63.6 77.6,62.3 78.7,60.8 
	78.7,60.8 78.5,59.5 78.8,58.1 78.6,56.8 77.8,55.6 77.5,54.3 77.4,52.9 76.6,51.8 75.8,50.8 75.1,49.7 74.2,48.8 73.2,47.9 
	72.1,47.3 71.8,47.4 72,47.6 71.4,47.6 70.7,48.7 69.5,49.6 68.8,49.4 67.5,49 66.8,47.8 66.6,47.6 66.8,46.1 68,45.4 68.8,44.9 
	70,43.7 70.5,43.9 "/>
</svg>
