<?xml version="1.0" encoding="utf-8"?>
<!-- Generator: Adobe Illustrator 25.0.0, SVG Export Plug-In . SVG Version: 6.00 Build 0)  -->
<svg version="1.1" id="레이어_1" xmlns="http://www.w3.org/2000/svg" xmlns:xlink="http://www.w3.org/1999/xlink" x="0px"
	 y="0px" width="28.3px" height="11.3px" viewBox="0 0 28.3 11.3" style="enable-background:new 0 0 28.3 11.3;"
	 xml:space="preserve">
<path d="M8.3,11.3c3.6-3.6,3.6-2.1,0-5.7c3.6-3.6,3.6-2.1,0-5.7C4.8,3.6,6.2,3.6,2.7,0c-3.6,3.6-3.6,2.1,0,5.7
	c-3.6,3.6-3.6,2.1,0,5.7C6.2,7.8,4.8,7.8,8.3,11.3"/>
<path d="M25.6,11.3c3.6-3.6,3.6-2.1,0-5.7c3.6-3.6,3.6-2.1,0-5.7c-3.6,3.6-2.1,3.6-5.7,0c-3.6,3.6-3.6,2.1,0,5.7
	c-3.6,3.6-3.6,2.1,0,5.7C23.5,7.8,22,7.8,25.6,11.3"/>
</svg>
