<?xml version="1.0" encoding="utf-8"?>
<!-- Generator: Adobe Illustrator 25.0.0, SVG Export Plug-In . SVG Version: 6.00 Build 0)  -->
<svg version="1.1" id="레이어_1" xmlns="http://www.w3.org/2000/svg" xmlns:xlink="http://www.w3.org/1999/xlink" x="0px"
	 y="0px" width="216px" height="82px" viewBox="0 0 216 82" style="enable-background:new 0 0 216 82;" xml:space="preserve">
<style type="text/css">
	.st0{fill:#E6E7E8;}
	.st1{fill:#D1D3D4;}
	.st2{fill:#FFFFFF;}
</style>
<polygon class="st0" points="44,56 44,52 40,52 36,52 32,52 28,52 24,52 20,52 16,52 12,52 8,52 8,56 12,56 16,56 20,56 24,56 
	28,56 28,60 32,60 36,60 40,60 44,60 48,60 48,56 "/>
<path class="st1" d="M28.3,42l2.8-2.8l2.8-2.8l2.8,2.8l2.8,2.8l-2.8,2.8L34,47.7l-2.8-2.8L28.3,42z M204,54h4v-4v-4h4v-4v-4h4v-4h-4
	h-4h-4v4h-4v4h-4v4h-4v4v4v2h-4v-4h-4h-4v-4h-4h-4h-4v-4h-4h-4v-4h-4h-4v-4h-4v-4h-4h-4h-4v-4h-4h-4v-4h-4h-4h-4h-4v-4h-4h-4h-4h-4
	h-4v-4h-4v-4V8h4V4h4V0h-4h-4h-4v4h-4h-4v4h-4v4h-4v4h-4v4h-4h-4h-4h-4h-4v4h-4h-4v4h-4h-4v4h-4v4h-4v4v4h-4h-4H8v4H4H0v4v4h4h4v-4
	h4h4h4h4h4h4h4h4h4v4h4v4h4v4h4v4h4h4v4h4h4h4v-4h-4v-4h-4v-4v-4h4v-4h4h4h4h4h4v4h4h4h4h4h4h4h4h4v4h4h4v4h4h4h4h4h4h4h4h4h4h4h4h4
	h4h4h4v2v4h4v4h4v4h4v4h4h4h4v-4h-4v-4v-4h-4v-4v-4h-4v-4V54z"/>
<polygon class="st0" points="128,60 124,60 124,56 120,56 116,56 112,56 108,56 104,56 100,56 96,56 92,56 92,52 88,52 84,52 80,52 
	76,52 72,52 72,56 68,56 68,60 68,64 72,64 76,64 80,64 84,64 88,64 92,64 96,64 100,64 104,64 108,64 112,64 116,64 120,64 124,64 
	128,64 132,64 132,60 "/>
<rect x="29.2" y="40" transform="matrix(0.707 -0.7072 0.7072 0.707 -20.57 34.3524)" width="4" height="4"/>
<polygon class="st2" points="34,47.7 36.8,44.8 39.7,42 36.8,39.2 34,36.3 31.2,39.2 34,42 31.2,44.8 "/>
</svg>
