<?xml version="1.0" encoding="utf-8"?>
<!-- Generator: Adobe Illustrator 25.0.0, SVG Export Plug-In . SVG Version: 6.00 Build 0)  -->
<svg version="1.1" id="레이어_1" xmlns="http://www.w3.org/2000/svg" xmlns:xlink="http://www.w3.org/1999/xlink" x="0px"
	 y="0px" width="80px" height="52px" viewBox="0 0 80 52" style="enable-background:new 0 0 80 52;" xml:space="preserve">
<style type="text/css">
	.st0{fill:#FFB266;}
	.st1{fill:#FFCC66;}
</style>
<g>
	<rect x="16" y="36" class="st0" width="4" height="8"/>
	<rect x="40" y="32" class="st0" width="4" height="4"/>
	<rect x="16" y="20" class="st0" width="4" height="4"/>
	<rect x="8" y="24" width="4" height="4"/>
	<rect x="36" y="36" class="st0" width="4" height="4"/>
	<rect x="36" y="40" class="st1" width="4" height="4"/>
	<rect x="32" y="40" class="st0" width="4" height="4"/>
	<rect x="28" y="40" class="st1" width="4" height="4"/>
	<rect x="24" y="40" class="st0" width="4" height="4"/>
	<rect x="28" y="36" class="st0" width="4" height="4"/>
	<rect x="20" y="24" class="st0" width="4" height="12"/>
	<path class="st1" d="M8,24h4v4H8V24z M4,24H0l0,12h4v4h4v4h8v-8h4V24h-4v-4h4v-4h4v4h-4v4h4v12h-4v8h4v-4h4v-4h4v4h4v-4h4v-4h4v4h4
		v-4h4v4h8v-8h4v8h4V24h4v-4h4v-4h4v-4H64v4h-4v4h-4v8h-4v-4h-4v-4h-4v-4h-8v4h-4v-4h-4V8h4V4h4V0L24,0v4h-4v8h-4v4H8v4H4V24z"/>
	<rect x="32" y="16" class="st0" width="4" height="4"/>
	<rect x="20" y="16" class="st0" width="4" height="4"/>
	<rect x="16" y="44" class="st1" width="4" height="4"/>
	<rect x="20" y="44" class="st0" width="4" height="4"/>
	<rect x="24" y="44" class="st1" width="4" height="4"/>
	<rect x="28" y="44" class="st0" width="4" height="4"/>
	<rect x="32" y="44" class="st1" width="4" height="4"/>
	<rect x="40" y="40" class="st0" width="4" height="4"/>
	<rect x="40" y="36" class="st1" width="4" height="4"/>
	<rect x="44" y="36" class="st0" width="4" height="4"/>
	<rect x="48" y="32" class="st0" width="4" height="4"/>
	<rect x="56" y="36" class="st0" width="4" height="4"/>
	<rect x="56" y="40" class="st1" width="4" height="4"/>
	<rect x="60" y="40" class="st0" width="4" height="4"/>
	<rect x="64" y="40" class="st1" width="4" height="4"/>
	<rect x="64" y="44" class="st0" width="4" height="4"/>
	<rect x="64" y="48" class="st1" width="4" height="4"/>
	<rect x="68" y="48" class="st0" width="4" height="4"/>
	<rect x="72" y="48" class="st1" width="4" height="4"/>
	<rect x="68" y="44" class="st1" width="4" height="4"/>
	<rect x="60" y="44" class="st1" width="4" height="4"/>
	<rect x="60" y="36" class="st1" width="4" height="4"/>
	<rect x="60" y="28" class="st0" width="4" height="8"/>
	<rect x="64" y="36" class="st0" width="4" height="4"/>
	<rect x="76" y="48" class="st0" width="4" height="4"/>
	<rect x="28" y="12" class="st0" width="4" height="4"/>
</g>
</svg>
