<?xml version="1.0" encoding="utf-8"?>
<!-- Generator: Adobe Illustrator 25.0.0, SVG Export Plug-In . SVG Version: 6.00 Build 0)  -->
<svg version="1.1" id="레이어_1" xmlns="http://www.w3.org/2000/svg" xmlns:xlink="http://www.w3.org/1999/xlink" x="0px"
	 y="0px" width="50.6px" height="87.8px" viewBox="0 0 50.6 87.8" style="enable-background:new 0 0 50.6 87.8;"
	 xml:space="preserve">
<style type="text/css">
	.st0{fill:#00ED6B;}
</style>
<g>
	<path class="st0" d="M0.8,27.3c0.1,0.8-0.7,1.6-0.5,2.2c0.2,0.8,0.3,1.5,0.6,2.1c0.3,0.7,0.9,1.2,1.4,1.7s1.2,0.8,1.9,1
		c0.6,0.2,1.3,0.7,2,0.7s1.4-0.2,2.2-0.2c0.7-0.1,1.3-0.7,2-0.8s1.3-0.6,2-0.8s1.5,0.1,2.2-0.1c0.7-0.2,1.4-0.2,2.1-0.4
		c0.7-0.2,1.2-1,1.9-1.2c0.7-0.2,1.5,0,2.2-0.2s1.5,0.5,2.3,0.4c0.7-0.1,1.3-1.1,2-1.2s1.4-0.1,2.2-0.1c0.8-0.1,1.5-0.4,2.3-0.4
		s1.6,0.1,2.3,0.1c0.8,0,1.6-0.1,2.3,0c0.8,0.1,1.5,0.1,2.3,0.2s1.4,1.4,2.1,1.5c0.8,0.1,1.6-0.3,2.3-0.2c0.8,0.1,1.5,0.2,2.2,0.3
		c0.8,0.1,1.5-0.3,2.2-0.4c0.8-0.1,1.4-0.3,2-0.6c0.7-0.3,1.8,0,2.3-0.6c0.4-0.5,1-1.3,1.2-2.2c0.1-0.6-0.4-1.5-0.4-2.4
		c0-0.7-0.7-1.4-0.8-2.2c-0.1-0.7-0.1-1.4-0.2-2.1c-0.1-0.7,1-1.7,0.8-2.4c-0.2-0.7-1.5-1.1-1.7-1.8c-0.2-0.7-0.4-1.4-0.7-2
		c-0.3-0.7,0.2-1.7-0.2-2.4c-0.4-0.6-1.5-0.8-1.9-1.4c-0.4-0.6-1-1-1.5-1.6S44,8,43.5,7.5S42,7,41.4,6.5s-1.1-1-1.7-1.4
		c-0.6-0.4-0.9-1.2-1.6-1.6c-0.6-0.4-1.6-0.1-2.2-0.4c-0.7-0.3-1.2-1-1.8-1.2c-0.7-0.3-1.5,0.1-2.2-0.1s-1.3-0.6-2-0.7
		c-0.8-0.1-1.5-1-2.2-1.1c-0.7-0.1-1.5,0.6-2.2,0.5c-0.7,0-1.5-0.3-2.2-0.2s-1.4,0.9-2.1,1c-0.7,0.1-1.5-0.2-2.2,0s-1.4,0.3-2.1,0.5
		s-1.3,0.7-2,1s-1.3,0.6-2,0.9c-0.6,0.4-1.2,0.8-1.8,1.2c-0.6,0.4-0.9,1.2-1.5,1.6C9,7,8.6,7.5,8.1,8C7.7,8.6,6.9,8.8,6.5,9.4
		C6,9.9,5.1,10.1,4.7,10.7c-0.4,0.6-0.4,1.5-0.8,2.1C3.5,13.4,3,14,2.7,14.6C2.4,15.3,2.2,16,2,16.7c-0.3,0.7-0.4,1.4-0.6,2.1
		S1.3,20.2,1.2,21c-0.1,0.7-0.5,1.4-0.6,2.1C0.4,23.7,0,24.5,0,25.2C0,25.9,0.8,26.6,0.8,27.3"/>
	<path class="st0" d="M43.8,65.9L43.8,65.9L43.8,65.9z M43.8,65.9c0-0.1-0.2-0.3-0.3-0.5c-0.3-0.5-0.7-1.2-0.7-2c0-0.3,0-0.6-0.1-1
		c0-0.4-0.1-0.9-0.1-1.4c0-0.9,0.5-1.5,1-2c0.1-0.1,0.3-0.3,0.3-0.4c0-0.2-0.1-0.5-0.2-0.7c-0.1-0.5-0.3-1-0.3-1.6
		c0-0.2,0-0.4,0-0.6c0-0.5,0-1,0-1.4c0-0.2-0.1-0.5-0.2-0.8c-0.1-0.3-0.3-0.7-0.3-1.2c-0.1-0.7,0.1-1.3,0.3-1.8
		c0-0.1,0.1-0.2,0.1-0.3c-0.1-0.1-0.2-0.2-0.3-0.3c-0.4-0.3-0.9-0.7-1.1-1.4c-0.2-0.6-0.2-1.1-0.2-1.5c0-0.2,0-0.5-0.1-0.6
		c-0.1-0.2-0.2-0.4-0.3-0.6c-0.3-0.4-0.6-0.9-0.7-1.5c-0.1-0.6-0.3-1.5-0.3-2.5c0-0.7,0.4-1.3,0.7-1.8c0.1-0.1,0.2-0.2,0.2-0.3
		s-0.1-0.2-0.2-0.3c-0.3-0.5-0.6-1.2-0.5-2c0.2-0.8,0.8-1.3,1.2-1.7c0,0,0.1-0.1,0.2-0.1c0-0.1-0.1-0.1-0.1-0.2
		c-0.3-0.5-0.6-1.1-0.5-1.9c0.1-0.8,0.6-1.3,0.9-1.7c0.1-0.1,0.1-0.2,0.2-0.2c-0.1-0.1-0.1-0.3-0.2-0.4c-0.2-0.3-0.4-0.7-0.5-1.2
		c-0.1-0.1-0.2-0.2-0.3-0.3c-0.3-0.3-0.6-0.6-0.9-1.1c-0.1-0.2-0.2-0.5-0.3-0.6c-0.1-0.4-0.2-0.5-0.4-0.7c-0.5-0.6-0.5-1.4,0.1-1.9
		s1.4-0.5,1.9,0.1s0.7,1.1,0.9,1.5c0.1,0.2,0.1,0.3,0.2,0.4c0,0.1,0.2,0.2,0.3,0.3c0.4,0.3,0.9,0.8,1.1,1.7c0,0.1,0.2,0.3,0.2,0.5
		c0.3,0.5,0.6,1.1,0.6,1.8c0,0.9-0.5,1.5-0.9,1.9c-0.1,0.1-0.1,0.1-0.2,0.2c0,0.1,0.1,0.2,0.1,0.2c0.3,0.5,0.7,1.2,0.5,2
		s-0.8,1.4-1.2,1.7c0,0-0.1,0.1-0.2,0.1c0,0.1,0.1,0.1,0.1,0.2c0.2,0.5,0.6,1.1,0.5,1.9c-0.1,0.6-0.4,1.1-0.7,1.5
		c0,0.5-0.1,0.6-0.1,0.7c0,0.7,0.1,1.3,0.2,1.7c0,0.2,0.2,0.4,0.4,0.7s0.4,0.6,0.6,1c0.2,0.5,0.2,1,0.2,1.4c0,0.2,0,0.5,0.1,0.6
		s0.2,0.2,0.3,0.2c0.4,0.4,1.1,0.9,1.3,1.8c0.2,0.7-0.1,1.3-0.2,1.8c-0.1,0.2-0.2,0.5-0.2,0.6s0.1,0.4,0.2,0.6
		c0.2,0.4,0.3,1,0.4,1.6c0,0.5,0,1,0,1.6c0,0.2,0,0.4,0,0.6c0,0.2,0.1,0.5,0.2,0.8c0.1,0.5,0.3,1,0.3,1.7c0,0.9-0.5,1.5-1,2
		c-0.1,0.1-0.3,0.3-0.3,0.4c0,0.3,0,0.6,0.1,0.9c0,0.4,0.1,0.8,0.1,1.3c0,0.1,0.2,0.3,0.3,0.5c0.3,0.5,0.7,1.1,0.7,1.9
		s-0.6,1.4-1.4,1.4C44.4,67.2,43.8,66.6,43.8,65.9"/>
	<path class="st0" d="M33,58.3c0.7,0,1.3-0.5,1.4-1.2c0-0.1,0.2-0.4,0.3-0.5c0.3-0.4,0.7-0.9,0.8-1.5c0.1-0.4,0.1-0.8,0.2-1.2
		c0-0.4,0.1-0.8,0.2-1.1c0.1-0.3,0.2-0.6,0.4-1s0.3-0.8,0.5-1.3c0.2-0.6,0.3-1.3,0.4-1.9c0-0.2,0.1-0.4,0.1-0.6
		c0-0.2,0.1-0.5,0.2-0.7c0.2-0.5,0.4-1.2,0.4-1.9c0-1-0.6-1.6-1.1-2.1c-0.1-0.1-0.3-0.3-0.3-0.4c0-0.1,0.1-0.4,0.1-0.6
		c0.1-0.5,0.3-1.2,0.1-1.9c-0.1-0.6-0.5-1.1-0.8-1.5c-0.1-0.2-0.3-0.4-0.3-0.5c0.1-0.1,0.2-0.3,0.3-0.5c0.2-0.4,0.5-0.8,0.6-1.3
		s0.1-0.9,0.1-1.4c0-0.3,0-0.6,0.1-0.8s0.2-0.5,0.3-0.7c0.2-0.4,0.4-0.9,0.6-1.4c0.2-0.7,0-1.4-0.1-1.9c0-0.2-0.1-0.4-0.1-0.6
		s0-0.3,0-0.5c0-0.7,0.1-1.5-0.5-2.4c0-0.1-0.1-0.3-0.2-0.5c-0.2-0.7-0.6-1.8-1.7-2.3c-0.7-0.3-1.5-0.1-1.8,0.6s-0.1,1.5,0.6,1.8
		c0.1,0.1,0.2,0.5,0.3,0.7c0.1,0.4,0.2,0.7,0.5,1.1c0.1,0.1,0.1,0.3,0.1,0.8c0,0.2,0,0.4,0,0.6c0,0.4,0.1,0.8,0.1,1.1
		c0.1,0.3,0.1,0.6,0.1,0.7c-0.1,0.2-0.2,0.5-0.3,0.8c-0.2,0.3-0.4,0.7-0.5,1.1C34,34.2,34,34.7,34,35.2c0,0.3,0,0.6-0.1,0.7
		c0,0.2-0.2,0.4-0.3,0.6c-0.3,0.5-0.7,1.1-0.7,1.9c0,0.9,0.5,1.6,0.9,2.1c0.1,0.2,0.3,0.4,0.3,0.5S34,41.4,34,41.6
		c-0.1,0.5-0.3,1.2-0.1,1.9s0.6,1.2,1,1.6c0.1,0.1,0.3,0.3,0.3,0.4c0,0.2-0.1,0.6-0.2,0.9c-0.1,0.3-0.2,0.7-0.3,1.1
		c0,0.2-0.1,0.4-0.1,0.6c-0.1,0.6-0.2,1.1-0.3,1.6c-0.1,0.3-0.2,0.7-0.4,1c-0.1,0.4-0.3,0.8-0.4,1.2c-0.2,0.5-0.2,1.1-0.3,1.5
		c0,0.3-0.1,0.6-0.1,0.9c0,0.1-0.2,0.4-0.4,0.5c-0.4,0.5-0.8,1.1-0.9,1.9c-0.1,0.8,0.5,1.4,1.3,1.5C33,58.3,33,58.3,33,58.3"/>
	<path class="st0" d="M29.9,51.6L29.9,51.6z M27.1,53.6L27.1,53.6L27.1,53.6 M26.9,69.5L26.9,69.5z M26.9,69.6L26.9,69.6z
		 M27.3,80.2L27.3,80.2z M23.5,86.9c-0.3-0.6,0-1.4,0.6-1.7c0-0.1,0-0.2,0-0.2c0-0.2,0.1-0.4,0.1-0.6s0.1-0.3,0.1-0.5
		c0.1-0.5,0.2-1,0.2-1.6s0-1.3-0.1-2c-0.1-0.8,0.3-1.4,0.6-1.8c0.1-0.1,0.1-0.3,0.2-0.4c0-0.1-0.2-0.3-0.2-0.5
		c-0.2-0.4-0.5-0.9-0.6-1.5c-0.1-0.9-0.1-1.7-0.1-2.2c0-0.4,0.1-0.8,0.2-1.3c0.1-0.3,0.2-0.7,0.2-1c0-0.1-0.1-0.3-0.2-0.4
		c-0.3-0.5-0.6-1.2-0.5-2.1c0.1-0.7,0.4-1.2,0.7-1.6c0.1-0.2,0.3-0.4,0.3-0.5c0-0.2,0-0.4-0.1-0.7c-0.1-0.4-0.2-1-0.1-1.6
		c0.1-0.8,0.7-1.4,1.1-1.8c0.1-0.1,0.2-0.2,0.3-0.3c-0.1-0.1-0.1-0.2-0.2-0.3c-0.3-0.5-0.7-1.2-0.6-2.1c0.1-0.6,0.3-1.1,0.5-1.5
		c0.1-0.3,0.2-0.5,0.3-0.7c0-0.2-0.1-0.5-0.1-0.7c-0.1-0.5-0.2-1-0.2-1.6c0.1-0.7,0.5-1.3,0.8-1.8c0.1-0.1,0.2-0.3,0.2-0.4
		c0.1-0.9,0-1.5-0.1-1.6l-0.1-0.2v-0.2c0-0.3,0.1-0.7,0.4-1c0.1-0.2,0.2-0.5,0.3-0.7c0-0.1,0.1-0.2,0.1-0.2
		c-0.1-0.1-0.1-0.1-0.2-0.2c-0.4-0.4-0.9-0.9-1.1-1.6c-0.1-0.5-0.1-1-0.1-1.4c0-0.3,0-0.5,0-0.7c0-0.1-0.1-0.3-0.2-0.5
		c-0.2-0.5-0.5-1-0.5-1.7c0-0.9,0.6-1.6,1.1-2c0.1-0.1,0.3-0.3,0.3-0.4c0-0.2,0-0.4,0-0.7c0-0.5,0-1,0.2-1.5c0-0.1,0-0.4-0.1-0.6
		c-0.1-0.5-0.2-1.1,0-1.7c0.1-0.2,0.1-0.5,0-0.8c0-0.4,0-0.8,0.1-1.3c0.2-0.8,0.7-1.3,1.2-1.8l0,0c-0.4-0.3-0.8-0.8-1-1.4
		c0-0.1-0.1-0.3-0.1-0.4c-0.1-0.4-0.2-0.6-0.3-0.9l-0.1-0.2c-0.2-0.4-0.4-0.7-0.7-1c-0.5-0.5-0.5-1.4,0-1.9s1.4-0.5,1.9,0
		s0.9,1.1,1.2,1.6l0.1,0.2c0.4,0.6,0.5,1.2,0.6,1.7c0,0.1,0,0.2,0.1,0.2c0.1,0.1,0.2,0.2,0.3,0.3c0.4,0.4,1.1,1,1.1,2
		c0,1-0.7,1.6-1.2,2.1c-0.1,0.1-0.3,0.3-0.4,0.4c0,0.2,0,0.4,0,0.6c0,0.4,0,1-0.1,1.6c0,0.1,0,0.4,0.1,0.6c0.1,0.5,0.2,1.1,0,1.7
		c0.3,0,0.3,0.3,0.3,0.7c0,0.4,0,0.8-0.1,1.2c-0.1,0.8-0.7,1.3-1.1,1.7c-0.1,0.1-0.2,0.2-0.2,0.2c0,0.1,0.1,0.3,0.2,0.4
		c0.2,0.4,0.3,0.8,0.4,1.2s0.1,0.8,0.1,1.2c0,0.3,0,0.5,0,0.7c0.1,0.1,0.2,0.2,0.3,0.3c0.4,0.4,1,0.9,1.1,1.7s-0.2,1.5-0.5,1.9
		c-0.1,0.1-0.2,0.3-0.2,0.4c0,0.1,0,0.3-0.1,0.5c0.1,0.5,0.1,1.2,0,1.9c-0.1,0.6-0.4,1.1-0.6,1.5c-0.1,0.2-0.3,0.5-0.3,0.7
		c0,0.1,0.1,0.4,0.1,0.6c0.1,0.5,0.3,1.1,0.2,1.7c-0.1,0.5-0.3,1-0.4,1.4c-0.1,0.2-0.2,0.5-0.2,0.7c0.1,0.1,0.2,0.3,0.2,0.4
		c0.3,0.5,0.7,1.2,0.6,2.1c-0.1,0.8-0.7,1.4-1.1,1.8c-0.1,0.1-0.3,0.3-0.3,0.4c0,0.2,0,0.4,0.1,0.7c0.1,0.4,0.2,1,0.1,1.5
		c-0.1,0.7-0.5,1.3-0.8,1.7c-0.1,0.1-0.2,0.3-0.3,0.4c0,0.1,0.2,0.4,0.2,0.5c0.2,0.5,0.5,1.1,0.5,1.8c-0.1,0.7-0.2,1.2-0.4,1.6
		c-0.1,0.2-0.1,0.4-0.1,0.5c0,0.5,0,1.2,0.1,2c0,0.1,0.1,0.3,0.2,0.4c0.2,0.4,0.5,0.9,0.6,1.6c0.1,0.8-0.3,1.4-0.5,1.9
		c-0.1,0.1-0.2,0.3-0.2,0.4c0,0.8,0.1,1.5,0.1,2.1c0,0.9-0.2,1.6-0.3,2.2c0,0.1-0.1,0.3-0.1,0.4c0,0.2-0.1,0.4-0.1,0.5
		c-0.1,0.7-0.3,1.7-1.6,2.3c-0.2,0.1-0.3,0.1-0.5,0.1C24.3,87.8,23.8,87.5,23.5,86.9"/>
	<path class="st0" d="M20.5,67.3L20.5,67.3z M19.4,73.6c-0.1,0-0.2-0.1-0.4-0.2c-0.2-0.1-0.4-0.2-0.5-0.2c-0.7-0.3-1-1.1-0.7-1.8
		c0.2-0.4,0.5-0.6,0.9-0.7c0-0.3,0-0.5,0-0.8c0-0.1-0.2-0.4-0.3-0.5c-0.3-0.5-0.7-1.1-0.7-1.9c0-0.5,0-0.9,0-1.4c0-0.4,0-0.7,0-1.1
		c0-0.3,0-0.6-0.1-1c0-0.4-0.1-0.8-0.1-1.3c0-0.9,0.6-1.5,1-2c0.1-0.1,0.1-0.1,0.2-0.2c-0.1-0.1-0.2-0.3-0.2-0.4
		c-0.3-0.5-0.6-1.2-0.5-2c0.2-0.8,0.6-1.3,0.9-1.7c0.1-0.1,0.2-0.3,0.3-0.3c0.2-0.6,0.5-1,0.8-1.3c0.1-0.2,0.3-0.4,0.4-0.5
		c0.1-0.5,0.2-1.3,0.3-2c0-0.3,0.1-0.6,0.1-0.9c0.1-0.3,0.1-0.6,0.1-0.9c-0.1-0.1-0.1-0.1-0.2-0.2c-0.4-0.4-1-1-1.1-1.9
		c0-0.4,0-0.7,0-1.1c0-0.3,0-0.5,0-0.8c0-0.9,0.5-1.5,0.8-2c0.1-0.1,0.2-0.2,0.2-0.3c0-0.2,0-0.4-0.1-0.7c-0.1-0.5-0.2-1-0.1-1.5
		c0.1-0.3,0.1-0.6,0.1-0.9c0.1-0.4,0.1-0.9,0.2-1.3c0-0.2,0-0.5,0-0.8c0-0.4-0.1-0.8,0-1.3s0.1-1,0.1-1.6v-0.4c0-0.7,0-1.1-0.1-1.6
		s-0.1-1-0.1-1.5c0-0.2,0-0.4,0-0.5c-0.5-0.6-0.9-1-1.3-1.3c-0.6-0.4-0.9-1.2-0.5-1.9c0.4-0.6,1.2-0.9,1.9-0.5
		c0.7,0.4,1.4,1.1,2.1,2c0.6,0.8,0.5,1.7,0.5,2.3c0,0.2,0,0.5,0,0.5c0.2,0.8,0.2,1.6,0.2,2.3v0.4c0,0.7,0,1.3-0.1,2
		c0,0.2,0,0.5,0,0.7c0,0.5,0.1,1,0,1.5c-0.1,0.3-0.1,0.7-0.2,1.1c0,0.3-0.1,0.6-0.1,1c0,0.1,0,0.4,0.1,0.6c0.1,0.4,0.2,0.9,0.1,1.5
		c-0.1,0.7-0.4,1.2-0.7,1.6c-0.1,0.1-0.3,0.3-0.3,0.5c0,0.3,0,0.6,0,0.8s0,0.4,0,0.6c0.1,0.1,0.1,0.1,0.2,0.2c0.4,0.4,1.1,1,1.1,1.9
		c0,0.6-0.1,1.2-0.2,1.7c0,0.2-0.1,0.5-0.1,0.6c-0.1,1-0.2,1.8-0.4,2.4c-0.2,0.7-0.5,1.1-0.8,1.5c-0.1,0.2-0.3,0.4-0.3,0.5
		c-0.2,0.5-0.5,0.9-0.7,1.2c-0.1,0.1-0.2,0.3-0.3,0.4c0,0.1,0.1,0.2,0.1,0.2c0.3,0.5,0.7,1.2,0.6,2.1c-0.1,0.7-0.5,1.2-0.8,1.6
		c-0.1,0.1-0.3,0.3-0.3,0.4c0,0.2,0,0.6,0,0.9c0,0.4,0.1,0.8,0.1,1.2c0,0.4,0,0.8,0,1.2c0,0.4,0,0.8,0,1.2c0,0.1,0.2,0.4,0.3,0.5
		c0.3,0.5,0.7,1.1,0.7,1.9c0,0.5,0,1-0.1,1.5c0,0.4-0.1,0.8-0.1,1.1v2.1L19.4,73.6z"/>
	<path class="st0" d="M14.5,63.4L14.5,63.4L14.5,63.4z M14.5,63.4L14.5,63.4L14.5,63.4z M14.4,63.5c-0.1,0-0.2-0.1-0.3-0.1
		c-0.6-0.2-1-0.7-1-1.3c0-0.4,0.1-0.7,0.3-0.9c-0.1-0.3-0.1-0.6-0.1-0.9c0-0.1,0-0.4-0.1-0.6c-0.1-0.4-0.2-0.9-0.1-1.5
		c0.1-0.7,0.4-1.2,0.6-1.6c0.1-0.1,0.2-0.3,0.2-0.4l0.1-0.8c0.1-0.4,0.1-0.8,0.2-1.2c0.1-0.4,0.1-0.9,0.2-1.3c0-0.2,0.1-0.5,0.1-0.7
		c0.1-0.6,0.3-1.1,0.5-1.5c0-0.1,0.1-0.2,0.1-0.3c-0.1-0.1-0.2-0.2-0.2-0.3c-0.4-0.4-0.8-1-0.9-1.7c-0.1-0.6,0-1.1,0.1-1.5
		c0-0.3,0.1-0.5,0.1-0.7c-0.1-0.7,0.1-1.3,0.3-1.8c0.1-0.2,0.1-0.4,0.1-0.5c-0.1-0.1-0.2-0.4-0.3-0.5c-0.4-0.6-0.9-1.3-0.7-2.3
		c0.1-0.4,0.3-0.8,0.4-1.2c0.1-0.3,0.2-0.6,0.3-0.9c0.1-0.5,0.4-0.9,0.6-1.2c0.1-0.1,0.3-0.4,0.3-0.4c0-0.5,0.1-1,0.2-1.4
		c0-0.2,0.1-0.5,0.1-0.7c-0.1-0.1-0.3-0.2-0.5-0.3c-0.5-0.3-1-0.6-1.4-1.2c-0.4-0.6-0.4-1.2-0.5-1.8c0-0.2,0-0.5-0.1-0.6
		c-0.5-0.4-1.1-0.8-1.7-1.3l0,0c-0.6-0.4-0.8-1.3-0.4-1.9c0.4-0.6,1.3-0.8,1.9-0.4l0,0c0.7,0.5,1.5,1,2.1,1.6
		c0.7,0.7,0.8,1.6,0.8,2.2c0,0.2,0,0.4,0.1,0.6c0.1,0.1,0.3,0.2,0.5,0.3c0.6,0.4,1.4,0.9,1.7,1.8c0.2,0.8,0,1.5-0.1,2.1
		c-0.1,0.3-0.1,0.6-0.1,0.8c0,0.9-0.5,1.6-0.8,2c-0.1,0.1-0.2,0.3-0.2,0.3c-0.1,0.4-0.3,0.8-0.4,1.1c-0.1,0.2-0.2,0.4-0.2,0.6
		c0.1,0.1,0.1,0.2,0.2,0.3c0.3,0.5,0.8,1.2,0.8,2c0,0.6-0.2,1.1-0.3,1.4c-0.1,0.2-0.1,0.4-0.1,0.5c0.1,0.6,0,1.1-0.1,1.5
		c0,0.2-0.1,0.5-0.1,0.6c0.1,0.1,0.2,0.2,0.3,0.4c0.4,0.5,1,1.1,1,2c0,0.6-0.2,1.1-0.4,1.5c-0.1,0.2-0.2,0.5-0.3,0.7
		c0,0.2,0,0.4-0.1,0.7c0,0.4-0.1,0.9-0.2,1.4c-0.1,0.4-0.1,0.8-0.2,1.2l-0.1,0.8c-0.1,0.6-0.4,1.1-0.6,1.5c-0.1,0.1-0.2,0.4-0.2,0.4
		c0,0.1,0,0.4,0.1,0.7c0.1,0.4,0.2,0.8,0.1,1.3c0,0.1,0.1,0.3,0.2,0.4c0.2,0.4,0.5,1,0.5,1.7v1.4h-1.4
		C15.1,63.8,14.9,63.7,14.4,63.5"/>
	<path class="st0" d="M6.2,32.5L6.2,32.5L6.2,32.5z M5.5,57.2c-0.7-0.2-1.2-0.9-1-1.7c0.2-0.7,0.2-1.3,0.2-2.2v-0.4
		c0-0.5,0.1-1,0.2-1.4C5,51.3,5,51,5,50.8c0-0.7,0.3-1.4,0.5-1.9c0.1-0.2,0.2-0.4,0.2-0.5c-0.1-0.1-0.2-0.3-0.3-0.5
		c-0.4-0.5-0.9-1.2-0.7-2.1c0.2-1,1-1.5,1.6-1.9c0.1-0.1,0.2-0.1,0.3-0.2c0-0.2,0.1-0.4,0.1-0.6c0-0.4,0.1-0.8,0.3-1.3
		c0.2-0.6,0.3-1,0.3-1.6c0-0.2-0.1-0.5-0.3-0.8c-0.1-0.2-0.2-0.5-0.3-0.8c-0.2-0.6-0.5-1.2-0.8-1.7c-0.1-0.2-0.3-0.5-0.5-0.7
		c-0.2-0.4-0.5-0.8-0.7-1.2c-0.1-0.2-0.2-0.3-0.3-0.5C4,33.8,3.6,33,3.6,32.2c0-1.1,0.9-1.8,1.5-2.4c0.2-0.1,0.4-0.3,0.5-0.4
		c0-0.1-0.1-0.4-0.1-0.6c-0.1-0.5-0.3-1-0.2-1.6c0-0.6,0.7-1.2,1.4-1.1c0.8,0.1,1.3,0.8,1.2,1.5C7.9,27.7,8,28,8,28.2
		c0.2,0.6,0.4,1.5-0.1,2.4c-0.3,0.6-0.8,1-1.2,1.3c-0.1,0.1-0.3,0.3-0.4,0.4c0.1,0.2,0.3,0.7,0.4,0.9C6.9,33.5,7,33.8,7.1,34
		c0.1,0.3,0.3,0.6,0.5,0.9c0.2,0.3,0.4,0.6,0.5,0.9c0.3,0.6,0.7,1.3,1,2.1c0.1,0.2,0.1,0.3,0.2,0.5c0.3,0.5,0.6,1.2,0.6,2
		c0,0.9-0.1,1.7-0.5,2.5c-0.1,0.1-0.1,0.4-0.1,0.6c0,0.4-0.1,1-0.3,1.6c-0.3,0.6-0.8,1-1.3,1.3l-0.1,0.1c0.3,0.5,0.8,1.1,0.8,2
		c0,0.7-0.3,1.2-0.5,1.7c-0.1,0.2-0.2,0.5-0.2,0.5c0,0.6-0.1,1.1-0.2,1.6c-0.1,0.3-0.1,0.6-0.1,0.8v0.3c0,1,0,1.9-0.3,2.9
		c-0.2,0.6-0.7,1-1.3,1C5.7,57.3,5.6,57.3,5.5,57.2"/>
</g>
</svg>
