<?xml version="1.0" encoding="utf-8"?>
<!-- Generator: Adobe Illustrator 25.0.0, SVG Export Plug-In . SVG Version: 6.00 Build 0)  -->
<svg version="1.1" id="레이어_1" xmlns="http://www.w3.org/2000/svg" xmlns:xlink="http://www.w3.org/1999/xlink" x="0px"
	 y="0px" width="26.6px" height="9.1px" viewBox="0 0 26.6 9.1" style="enable-background:new 0 0 26.6 9.1;" xml:space="preserve">
<style type="text/css">
	.st0{fill:#F1F2F2;}
	.st1{fill:#4C4C4E;}
</style>
<polygon class="st0" points="17.5,4.5 17.6,5.7 18.1,6.8 18.8,7.7 19.8,8.4 20.9,8.8 22,9 23.2,8.9 24.3,8.5 25.2,7.7 26,6.8 
	26.4,5.7 26.6,4.5 26.4,3.4 26,2.3 25.3,1.3 24.4,0.5 23.2,0.2 22,0 20.9,0.1 19.7,0.5 18.8,1.2 18.2,2.3 17.6,3.3 "/>
<polygon class="st0" points="0,4.5 0,5.7 0.5,6.8 1.2,7.7 2.2,8.4 3.3,8.8 4.5,9.1 5.6,8.8 6.7,8.4 7.7,7.8 8.3,6.8 8.8,5.7 9,4.5 
	8.8,3.3 8.4,2.3 7.7,1.3 6.7,0.6 5.6,0.1 4.5,0 3.3,0.2 2.1,0.5 1.3,1.3 0.5,2.2 0.1,3.4 "/>
<polygon class="st1" points="19.7,4.5 19.9,5.7 20.8,6.5 21.9,6.8 23,6.4 23.9,5.6 24.1,4.5 23.8,3.4 23.1,2.5 21.9,2.2 20.8,2.5 
	20,3.4 "/>
<polygon class="st1" points="2.3,4.5 2.6,5.7 3.4,6.5 4.6,6.8 5.7,6.5 6.5,5.7 6.8,4.5 6.5,3.4 5.7,2.6 4.6,2.3 3.4,2.6 2.6,3.4 "/>
</svg>
