<?xml version="1.0" encoding="utf-8"?>
<!-- Generator: Adobe Illustrator 25.0.0, SVG Export Plug-In . SVG Version: 6.00 Build 0)  -->
<svg version="1.1" id="레이어_1" xmlns="http://www.w3.org/2000/svg" xmlns:xlink="http://www.w3.org/1999/xlink" x="0px"
	 y="0px" width="112px" height="52px" viewBox="0 0 112 52" style="enable-background:new 0 0 112 52;" xml:space="preserve">
<style type="text/css">
	.st0{fill:#D1D3D4;}
</style>
<polygon class="st0" points="108,24 108,20 104,20 100,20 100,16 96,16 96,12 92,12 88,12 88,8 84,8 84,4 80,4 76,4 76,0 56,0 56,4 
	52,4 52,8 48,8 44,8 40,8 40,12 36,12 32,12 32,16 24,16 24,20 20,20 20,24 12,24 12,32 8,32 4,32 4,36 0,36 0,44 4,44 4,48 8,48 
	8,52 12,52 16,52 20,52 24,52 28,52 32,52 36,52 100,52 100,48 104,48 104,44 108,44 108,40 112,40 112,32 112,28 112,24 "/>
</svg>
