<?xml version="1.0" encoding="utf-8"?>
<!-- Generator: Adobe Illustrator 25.0.0, SVG Export Plug-In . SVG Version: 6.00 Build 0)  -->
<svg version="1.1" id="레이어_1" xmlns="http://www.w3.org/2000/svg" xmlns:xlink="http://www.w3.org/1999/xlink" x="0px"
	 y="0px" width="128px" height="80px" viewBox="0 0 128 80" style="enable-background:new 0 0 128 80;" xml:space="preserve">
<style type="text/css">
	.st0{fill:#D1D3D4;}
</style>
<polygon class="st0" points="128,48 124,48 124,44 120,44 120,40 116,40 116,36 112,36 112,32 108,32 108,28 104,28 104,24 100,24 
	100,20 96,20 96,16 88,16 88,12 80,12 80,8 72,8 72,4 56,4 56,0 40,0 40,4 36,4 36,8 32,8 32,12 24,12 24,16 16,16 16,20 12,20 
	12,24 8,24 8,32 4,32 4,40 0,40 0,44 0,48 0,52 0,56 0,60 4,60 4,64 8,64 8,68 12,68 12,72 16,72 16,76 20,76 20,80 24,80 28,80 
	32,80 36,80 40,80 108,80 108,76 112,76 112,72 116,72 116,68 120,68 120,64 124,64 124,60 128,60 128,52 "/>
</svg>
