<?xml version="1.0" encoding="utf-8"?>
<!-- Generator: Adobe Illustrator 25.0.0, SVG Export Plug-In . SVG Version: 6.00 Build 0)  -->
<svg version="1.1" id="레이어_1" xmlns="http://www.w3.org/2000/svg" xmlns:xlink="http://www.w3.org/1999/xlink" x="0px"
	 y="0px" width="64px" height="36px" viewBox="0 0 64 36" style="enable-background:new 0 0 64 36;" xml:space="preserve">
<style type="text/css">
	.st0{fill:#D1D3D4;}
</style>
<polygon class="st0" points="60,20 60,16 56,16 56,12 52,12 52,8 48,8 48,4 36,4 36,0 20,0 20,4 12,4 12,8 8,8 8,12 4,12 4,16 0,16 
	0,28 4,28 4,32 12,32 12,36 56,36 56,32 64,32 64,20 "/>
</svg>
