<?xml version="1.0" encoding="utf-8"?>
<!-- Generator: Adobe Illustrator 25.0.0, SVG Export Plug-In . SVG Version: 6.00 Build 0)  -->
<svg version="1.1" id="레이어_1" xmlns="http://www.w3.org/2000/svg" xmlns:xlink="http://www.w3.org/1999/xlink" x="0px"
	 y="0px" width="64px" height="56px" viewBox="0 0 64 56" style="enable-background:new 0 0 64 56;" xml:space="preserve">
<style type="text/css">
	.st0{fill:#FF854D;}
	.st1{fill:#FFAA4E;}
	.st2{fill:#FFFFFF;}
</style>
<polygon class="st0" points="36,28 36,32 40,32 40,28 40,24 40,20 36,20 36,24 "/>
<polygon class="st0" points="44,36 48,36 48,32 48,28 44,28 44,32 "/>
<rect x="4" y="12" class="st1" width="4" height="4"/>
<rect y="8" class="st1" width="4" height="4"/>
<rect x="4" y="4" class="st1" width="4" height="4"/>
<polygon class="st1" points="16,4 20,4 24,4 28,4 28,0 24,0 20,0 16,0 12,0 8,0 8,4 12,4 "/>
<polygon class="st0" points="52,44 56,44 56,40 56,36 52,36 52,40 "/>
<polygon class="st1" points="60,52 60,48 56,48 56,44 52,44 52,40 52,36 52,32 48,32 48,36 44,36 44,32 44,28 44,24 40,24 40,28 
	40,32 36,32 36,28 36,24 36,20 36,16 32,16 31.4,16 33.7,18.3 30.8,21.1 28,23.9 25.2,21.1 22.3,18.3 24.6,16 24,16 20,16 16,16 
	12,16 8,16 8,20 12,20 16,20 20,20 20,24 16,24 12,24 12,28 16,28 20,28 20,32 24,32 28,32 32,32 32,36 36,36 40,36 40,40 44,40 
	48,40 48,44 48,48 44,48 44,52 40,52 40,56 44,56 48,56 48,52 52,52 56,52 56,56 60,56 64,56 64,52 "/>
<polygon points="22.3,18.3 25.2,21.1 28,18.3 25.2,15.4 24.6,16 "/>
<polygon class="st2" points="28,18.3 25.2,21.1 28,23.9 30.8,21.1 33.7,18.3 31.4,16 30.8,15.4 28,12.6 25.2,15.4 "/>
</svg>
