<?xml version="1.0" encoding="utf-8"?>
<!-- Generator: Adobe Illustrator 25.0.0, SVG Export Plug-In . SVG Version: 6.00 Build 0)  -->
<svg version="1.1" id="레이어_1" xmlns="http://www.w3.org/2000/svg" xmlns:xlink="http://www.w3.org/1999/xlink" x="0px"
	 y="0px" width="255.6px" height="309.9px" viewBox="0 0 255.6 309.9" style="enable-background:new 0 0 255.6 309.9;"
	 xml:space="preserve">
<style type="text/css">
	.st0{fill:#FFF200;}
	.st1{fill:#00ED6B;}
	.st2{fill:#F1F1F2;}
	.st3{fill:#4C4C4E;}
</style>
<g>
	<polygon class="st0" points="27,133.6 26.4,137 27.1,140.6 26.5,144.1 27,147.6 26.1,151.1 26.8,154.8 23.6,153.7 20.9,151.8 
		17.7,151 14.9,149.5 11.7,149 8.7,147.7 5.9,146.2 2.8,145.3 0,144.3 2.1,146.6 4.4,148.9 7.3,150.7 10,152.7 12.4,155 14.7,157.4 
		16.8,160 19.3,162.2 22.3,163.8 24.7,166.1 27.3,168.2 29.7,170.5 32.1,172.8 34.4,174.9 35,171.9 34.9,168.7 34.6,165.5 
		34.9,162.3 34.4,159.2 35.5,156 35.2,153 38,154 40.9,155.5 43.8,156.7 47.1,156.9 50.1,157.9 53,159.1 55.8,160.8 58.8,161.7 
		61.3,162.7 59.5,160.6 56.7,158.9 54.6,156.3 51.8,154.6 49,152.8 46.8,150.4 44.5,148 41.5,146.6 39.7,143.8 37.1,141.8 
		34.7,139.5 32,137.7 29.5,135.5 	"/>
	<polygon class="st1" points="55.6,154.4 55.7,157.7 56.2,160.9 57.1,164.1 57.9,167.3 58.7,170.4 58.4,173.9 58.8,177.3 
		60.8,180.1 61.2,183.5 64.1,185.8 63.4,189.7 65.9,192.2 67.1,195.3 69.7,197.7 69.4,201.5 71.4,204.2 73.9,206.6 74.7,209.9 
		76.6,212.6 78.7,215.2 80.8,217.7 81,221.5 84.5,223.2 84.9,226.9 87.8,228.9 90,231.4 91.6,234.3 93.9,236.7 96,239.2 97.5,242.2 
		98.1,245.8 101.6,247.4 102.3,251 104.4,253.5 106.1,256.4 109.8,257.6 110.8,261.1 113.1,263.4 114.6,266.5 117.1,268.6 
		118.6,271.7 121.2,273.9 122.9,276.7 125.9,278.5 128,281 130.1,283.6 133.1,285.3 135.4,287.6 136.4,291.2 139.1,293.2 
		141.9,295.1 142.7,298.8 145,301.2 147,303.9 150.6,305 152.2,308 154.4,309.9 156.3,307.2 159.3,305.2 160.1,301.8 162.2,299.2 
		162.9,295.8 164.3,292.8 168.1,291.3 170,288.6 170,284.7 173.5,283 175,280.1 176.2,276.9 177.9,274.1 180.1,271.4 178.2,268.8 
		176.7,266.9 177.7,269.2 180.4,272.2 180.6,268 182.5,265.3 185.3,263.2 187.5,260.6 188.9,257.7 189.6,254.2 192.8,252.3 
		193,248.6 194.6,245.7 198.4,244.2 198.2,240.1 201.4,238.3 202.9,235.3 204,232.1 206.2,229.6 208.9,227.4 208.9,223.5 
		211.4,221.2 214,219 214.7,215.5 216.7,212.8 219.9,211 221.4,208.1 221.5,204.2 224.4,202.2 225.5,198.9 228.3,196.8 229.6,193.7 
		231.9,191.3 232.5,187.8 234.8,185.3 236.5,182.5 238.4,179.8 239.5,176.6 241.7,174.1 243.6,171.4 246.3,169.2 246.4,165.3 
		249.6,163.5 251.9,161 252.6,157.6 255.6,154.8 252.6,152.1 251.5,148.9 249.7,146.1 248.4,143 246.6,140.3 243,138.6 242.2,135.3 
		239.4,133.2 238.7,129.7 237.4,126.6 234.4,124.6 232.7,121.8 230.9,119 229.4,116.1 227.8,113.2 225.5,110.7 225.3,107 
		221.8,105.3 220.2,102.4 218.8,99.4 216.5,97 216,93.3 213.6,91 212.9,87.5 209.5,85.8 209.5,81.9 205.7,80.4 206,76.3 204.3,73.5 
		200.9,71.7 199.9,68.4 197,66.4 195.5,63.4 194.4,60.2 192.9,57.3 191.5,54.2 189.4,51.7 187,49.3 186.1,45.9 184.1,43.3 
		182.8,40.2 180.2,37.9 180.7,37.7 178.7,35 177,32.2 175.8,29 172.1,27.5 171.3,24.1 169,21.7 168.7,18 166.3,15.6 164.8,12.6 
		161.9,10.6 160.6,7.5 158.8,4.7 157.6,1.6 154.7,0 153.8,2.1 151.6,4.5 147.6,5.2 146.2,8.4 143.4,10.3 141.4,13 139.2,15.4 
		136.5,17.4 134.3,19.9 133.7,23.7 130.3,25.1 128.6,28 126.7,30.7 124.6,33.2 122.9,36.1 119.8,37.8 118.7,41.2 115.9,43.1 
		113.7,45.6 111.2,47.8 109.9,51 108.2,53.8 105.5,55.8 103.1,58.2 100.3,60.2 98.4,62.9 98.4,67 94.9,68.5 93.6,71.7 92.4,74.8 
		88.7,76.3 87.5,79.5 86.2,82.5 84.9,85.6 82,87.7 80.7,90.8 78.5,93.3 76.5,95.9 74.5,98.6 73.4,101.8 72.6,105.1 71.2,108 
		68.1,110.2 68,113.8 65,116 64.6,119.5 64.4,123 61.1,125.2 60.6,128.5 60.9,132.1 58.9,134.9 57.3,137.9 56.1,141.1 57.4,144.7 
		56.8,147.9 55.9,151.1 	"/>
	<polygon class="st2" points="105.7,182.1 109.1,182.6 112.2,184 115,185.7 117.6,187.9 119,191 120.3,194 120.4,197.3 120.3,200.7 
		119.3,203.9 117.4,206.6 114.9,208.9 112.3,211 108.9,211.7 105.7,212.1 102.4,211.6 99.2,210.7 96.4,208.9 93.9,206.7 92.5,203.6 
		91.3,200.6 90.8,197.3 91.2,194 92.1,190.7 94.3,188.2 96.3,185.5 99.2,183.7 102.4,182.8 	"/>
	<polygon class="st2" points="105.9,124.4 109.2,124.8 112.3,126.2 115.2,127.9 117.7,130.2 119.1,133.2 120.4,136.3 120.5,139.6 
		120.4,142.9 119.4,146.2 117.5,148.9 115,151.1 112.4,153.3 109.1,153.9 105.8,154.4 102.5,153.9 99.3,153 96.6,151.1 94,149 
		92.7,145.9 91.4,142.8 91,139.5 91.3,136.2 92.2,133 94.4,130.4 96.4,127.7 99.3,125.9 102.6,125.1 	"/>
	<polygon class="st3" points="100.8,190.1 103.7,190.7 106,192.5 107.7,194.9 108.3,197.7 107.5,200.5 106,203 103.5,204.5 
		100.7,205.2 97.8,204.7 95.5,203 93.9,200.5 93.2,197.7 94,194.9 95.5,192.5 98,190.9 	"/>
	<polygon class="st3" points="100.9,133.8 103.8,134.4 106.1,136.1 107.8,138.5 108.4,141.4 107.7,144.2 106.2,146.7 103.7,148.1 
		100.9,148.8 98,148.3 95.6,146.6 94,144.2 93.3,141.3 94.1,138.5 95.7,136.1 98.1,134.6 	"/>
</g>
</svg>
