<?xml version="1.0" encoding="utf-8"?>
<!-- Generator: Adobe Illustrator 25.0.0, SVG Export Plug-In . SVG Version: 6.00 Build 0)  -->
<svg version="1.1" id="레이어_1" xmlns="http://www.w3.org/2000/svg" xmlns:xlink="http://www.w3.org/1999/xlink" x="0px"
	 y="0px" width="93.6px" height="93.5px" viewBox="0 0 93.6 93.5" style="enable-background:new 0 0 93.6 93.5;"
	 xml:space="preserve">
<style type="text/css">
	.st0{fill:#00ED6B;}
	.st1{fill:#FFF200;}
	.st2{fill:#F1F1F2;}
	.st3{fill:#302F31;}
</style>
<g>
	<polygon class="st0" points="57.7,60.9 56.6,60.8 56,60 55.1,59.6 54.2,59.2 53.4,58.6 52.8,57.9 51.9,57.5 51.4,56.6 50.5,56.1 
		49.7,55.7 49,55.1 48.5,54.3 47.7,53.8 47,53.4 46.7,53.1 46.5,53.1 45.9,53.8 45.1,54.3 44.6,55.1 43.7,55.4 43,56 42.4,56.8 
		41.5,57.2 40.8,57.8 40,58.5 39.3,59.1 38.5,59.5 37.6,60 37,60.9 36,61.1 35.8,61.3 36.4,61.7 37.3,62.1 38.1,62.5 38.9,63 
		39.8,63.4 40.4,64.2 41.4,64.5 42.2,64.9 42.7,65.9 43.7,66.1 44.4,66.8 45.3,67 46.1,67.6 46.8,68 47.5,67.6 48.5,67.3 49.2,66.7 
		50,66.2 50.9,65.8 51.6,65.2 52.4,64.6 53.1,64 54,63.7 54.8,63.2 55.7,62.8 56.2,61.9 57.1,61.5 57.8,61.1 	"/>
	<polygon class="st0" points="83.3,43.7 82.4,43.3 81.7,42.6 81.2,41.8 80.6,41.1 79.6,40.8 78.8,40.1 78.3,39.3 77.6,38.7 77,37.9 
		76.2,37.4 75.4,36.9 74.7,36.2 74,35.6 73.3,35 72.4,34.6 71.9,33.7 71,33.2 70.4,32.5 69.6,32 68.9,31.3 68,30.9 67.4,30.1 
		66.5,29.7 65.6,29.4 64.9,28.7 64.2,28.1 63.4,27.6 62.4,27.3 61.7,26.7 60.8,26.2 60,25.8 59.2,25.3 58.4,24.9 57.7,24.1 
		56.8,23.8 55.9,23.4 55.1,22.9 54.2,22.6 53.2,22.5 52.4,21.8 51.5,21.7 50.6,21.4 49.7,21.1 48.7,21.1 47.8,21 46.8,21.1 
		45.9,20.9 44.9,20.8 44,21.1 43,21.2 42.2,21.8 41.2,21.8 40.4,22.5 39.5,22.7 38.6,23.1 37.7,23.2 36.9,23.8 36.1,24.3 35.3,24.8 
		34.3,25.1 33.6,25.7 32.8,26.2 31.9,26.5 31.2,27.3 30.2,27.5 29.5,28.2 28.7,28.6 28.1,29.4 27,29.6 26.5,30.5 25.6,30.9 
		24.8,31.4 24.1,32 23.3,32.5 22.7,33.3 21.7,33.6 21.3,34.6 20.5,35.1 19.8,35.7 18.9,36.2 18.2,36.8 17.3,37.3 16.7,38 16,38.6 
		15.4,39.4 14.7,40 14,40.7 13.2,41.2 12.7,42.1 11.8,42.5 11.2,43.3 10.5,43.9 9.9,44.5 10.7,44.9 11.4,45.4 12.1,46.1 12.9,46.5 
		13.8,46.8 14.3,47.6 15.2,48 16,48.4 16.6,49.1 17.6,49.3 17.8,49.5 18.4,49.1 19.3,48.8 20.3,49 20.9,49.8 21.3,50.7 21.1,51.7 
		20.9,51.9 21.3,52.2 22.3,52.3 23.1,52.9 23.9,53.3 24.6,53.9 25.4,54.4 26.2,55 26.9,55.7 27.7,56.2 28.6,56.5 29.5,56.8 
		30.2,57.5 30.8,58.2 31.7,58.7 32,58.8 32.6,58.5 33.5,58.2 34.3,57.6 35.3,57.3 36.1,56.8 36.9,56.2 37.6,55.5 38.3,54.8 
		39.1,54.3 39.9,53.7 40.7,53.2 41.6,52.7 42.2,52.1 42.9,51.5 43.4,50.8 43.7,50.7 43.3,50.5 42.7,49.8 41.8,49.3 40.9,49 
		40.2,48.3 39.3,48.1 38.3,48.1 37.5,47.4 36.6,47.3 35.7,47.3 34.7,47.3 33.8,47 32.8,47.4 31.9,47.5 31,47.6 30.1,48.1 29.2,48.3 
		28.6,48.6 27.6,49.1 26.7,48.5 26.3,47.7 26,46.8 26.2,45.8 26.9,45 27.7,45 28.5,44.5 29.3,44.3 30.2,44.1 31,43.5 32,43.5 
		32.9,43.3 33.8,43.6 34.8,43.6 35.7,43.6 36.7,43.5 37.6,44 38.6,44.2 39.6,44 40.5,44.5 41.5,44.7 42.3,45.2 43.2,45.6 44.1,46.1 
		44.8,46.8 45.6,47.3 46.2,48.1 46.7,48.3 47.2,47.8 48,47.3 48.7,46.6 49.6,46.2 50.5,45.9 51.3,45.3 52.2,44.7 53.1,44.5 
		54.1,44.2 55,44.1 55.9,43.6 56.9,43.5 57.9,43.5 58.9,43.5 59.8,43.6 60.8,43.3 61.7,43.4 62.5,43.9 63.4,43.9 64.4,44 65.1,44.7 
		65.9,45.2 66.5,45.4 67.3,45.9 67.6,46.8 67.5,47.7 66.9,48.5 66,48.7 65.1,48.5 64.4,48.4 63.6,47.8 62.6,47.8 61.7,47.6 
		60.8,47.5 59.8,47.1 58.9,47.1 58,47.2 57.1,47.7 56.2,47.7 55.3,48 54.3,48.1 53.4,48.3 52.5,48.7 51.9,49.5 50.9,49.7 50.2,50.3 
		50,50.6 50.2,50.7 50.9,51.3 51.5,52 52,52.7 52.9,53.2 53.7,53.8 54.4,54.5 55.2,55 55.9,55.8 56.9,56 57.6,56.7 58.3,57.4 
		59.1,57.9 60.2,58.1 61,58.5 61.6,58.7 61.8,58.4 62.6,57.9 63.5,57.7 64.2,56.9 65.1,56.7 65.8,56 66.7,55.7 67.4,54.9 68.2,54.5 
		69.1,54.2 69.7,53.3 70.7,53.1 71.4,52.5 72.3,52.1 72.6,51.8 72.5,51.8 72.6,50.7 72.9,49.9 73.4,49.1 74.3,49 75.2,49.3 
		75.5,49.7 76,49.3 77,49.1 77.5,48.3 78.5,48.1 79.3,47.7 80,47 80.7,46.5 81.6,46.2 82.3,45.6 83.2,45.2 83.9,44.6 	"/>
</g>
<polygon class="st0" points="46.8,93.4 45.9,93.3 44.9,93.5 44,93.2 43,93.5 42.1,93.4 41.1,93.3 40.2,92.9 39.2,93 38.3,92.7 
	37.3,92.8 36.4,92.4 35.4,92.4 34.5,92.1 33.7,91.4 32.8,91.3 31.9,90.9 31,90.6 30,90.5 29.2,90 28.3,89.8 27.5,89.2 26.5,89.1 
	25.8,88.3 24.8,88.2 24.1,87.4 23.3,87 22.5,86.5 21.5,86.3 20.8,85.6 20,85.1 19.3,84.4 18.4,84 17.8,83.3 16.9,82.8 16.2,82.2 
	15.4,81.7 14.8,80.9 14,80.3 13.6,79.4 12.7,78.9 12.1,78.2 11.5,77.5 11,76.6 10.4,75.9 9.8,75.2 9.1,74.5 8.6,73.7 8.2,72.8 
	7.4,72.2 7.1,71.2 6.8,70.3 6,69.7 5.8,68.7 5.1,68 4.9,67 4.4,66.2 4,65.3 3.7,64.5 3.2,63.6 3.1,62.7 2.4,61.9 2.1,61 2.2,60 
	1.9,59.1 1.3,58.2 1.4,57.2 1.2,56.3 1.1,55.4 0.9,54.4 0.7,53.5 0.3,52.6 0.1,51.6 0.2,50.7 0.2,49.7 0,48.8 0.1,47.8 0.4,46.9 
	0.4,45.9 0,45 0.3,44 0.1,43 0.2,42.1 0.7,41.2 0.5,40.2 0.5,39.2 0.9,38.3 1,37.4 1.1,36.4 1.5,35.5 2,34.7 1.9,33.7 2.4,32.8 
	2.8,32 3,31 3.4,30.2 3.5,29.2 4.1,28.4 4.5,27.6 4.6,26.5 5.3,25.8 5.6,24.9 6.2,24.1 6.5,23.2 7.1,22.5 7.8,21.8 7.9,20.7 
	8.7,20.1 9.1,19.2 9.8,18.5 10.5,17.9 10.9,17 11.6,16.3 12.3,15.7 12.8,14.9 13.6,14.3 14.3,13.7 14.9,12.9 15.5,12.2 16.4,11.7 
	17.1,11.1 17.8,10.4 18.5,9.9 19.3,9.3 20.1,8.8 20.8,8.1 21.7,7.7 22.3,6.9 23.2,6.6 24.1,6.3 24.9,5.6 25.8,5.4 26.5,4.7 
	27.5,4.5 28.4,4.2 29.2,3.6 30.1,3.3 30.9,2.7 31.9,2.9 32.8,2.5 33.7,2.2 34.6,1.9 35.5,1.6 36.5,1.4 37.4,1.3 38.3,1 39.2,0.6 
	40.2,0.9 41.1,0.3 42.1,0.7 43,0.3 43.9,0.1 44.9,0.3 45.9,0.2 46.8,0.2 47.8,0.3 48.7,0 49.7,0.5 50.6,0.6 51.6,0.3 52.5,0.7 
	53.5,0.5 54.4,0.7 55.3,1.1 56.3,1.2 57.2,1.3 58.1,1.6 59,1.9 59.9,2.2 60.9,2.3 61.8,2.5 62.7,2.8 63.6,3.1 64.5,3.6 65.3,4.2 
	66.2,4.3 67,4.9 67.9,5.3 68.8,5.6 69.5,6.3 70.4,6.7 71.2,7.2 72.1,7.4 72.9,8 73.6,8.7 74.5,9.1 75.3,9.7 75.8,10.5 76.7,10.9 
	77.2,11.7 78,12.3 78.8,12.9 79.6,13.4 80.2,14.2 80.7,15 81.6,15.5 82.3,16.2 82.5,17.2 83.5,17.6 83.9,18.5 84.6,19.2 85.1,20 
	85.6,20.8 85.9,21.7 86.6,22.4 87.2,23.2 87.5,24.1 87.9,25 88.4,25.8 89.1,26.5 89.3,27.4 89.8,28.3 90.1,29.2 90.2,30.2 90.7,31 
	91.1,31.9 91.1,32.9 91.6,33.7 91.8,34.7 92.3,35.5 92.1,36.5 92.5,37.4 92.8,38.3 93,39.3 92.9,40.2 93.1,41.2 93.4,42.1 
	93.4,43.1 93.5,44 93.5,45 93.5,45.9 93.6,46.9 93.4,47.8 93.2,48.8 93.6,49.7 93.2,50.7 93.1,51.6 93.1,52.6 93.1,53.5 93,54.5 
	92.8,55.4 92.6,56.4 92.5,57.3 92,58.2 91.7,59.1 91.7,60.1 91.2,60.9 91.1,61.9 90.9,62.9 90.2,63.6 89.9,64.5 89.5,65.4 
	89.1,66.2 88.6,67.1 88.2,67.9 88.1,69 87.3,69.6 86.8,70.4 86.4,71.3 85.9,72.1 85.3,72.9 84.8,73.6 84.3,74.4 83.7,75.2 
	83.3,76.1 82.5,76.7 81.9,77.4 81.2,78.1 80.7,78.9 80,79.5 79.6,80.5 78.9,81.1 78.1,81.7 77.2,82.1 76.5,82.8 75.9,83.6 75,84 
	74.3,84.6 73.4,85.1 72.8,85.9 71.9,86.3 71.2,86.9 70.4,87.4 69.6,87.8 68.6,88.1 67.7,88.4 66.9,89 66.2,89.2 65.6,88.7 
	65.2,87.9 65.1,87 65.8,86.4 66.7,86.2 67.4,85.6 68.5,85.5 69.2,84.8 70,84.3 71,84 71.6,83.3 72.5,82.9 73,82 73.8,81.5 
	74.7,81.1 75.4,80.4 76,79.7 76.8,79.2 77.5,78.5 78.3,77.9 78.9,77.1 79.6,76.5 80,75.6 80.7,75 81.2,74.2 81.9,73.5 82.6,72.8 
	83.2,72.1 83.6,71.2 84.1,70.4 84.7,69.6 85,68.7 85.3,67.8 86,67.1 86.6,66.3 86.7,65.3 87.1,64.4 87.5,63.5 87.8,62.6 88.1,61.8 
	88.4,60.9 88.7,59.9 89.3,59.1 89.6,58.2 89.7,57.3 89.6,56.3 90.2,55.4 90,54.4 90.5,53.5 90.5,52.6 90.7,51.6 90.8,50.7 
	90.7,49.7 91.1,48.8 90.8,47.8 90.9,46.9 90.8,45.9 90.9,45 90.9,44 90.8,43.1 90.5,42.1 90.6,41.2 90.4,40.2 90.2,39.3 89.8,38.4 
	89.9,37.5 89.8,36.5 89.2,35.7 89.2,34.7 89,33.8 88.6,32.9 88.5,31.9 87.8,31.2 87.7,30.2 87.1,29.4 86.9,28.5 86.3,27.7 
	85.9,26.9 85.5,26 85.3,25 84.5,24.4 84,23.6 83.8,22.6 83,22 82.4,21.2 81.8,20.5 81.3,19.7 81,18.8 80.2,18.2 79.7,17.4 
	78.9,16.8 78.1,16.2 77.5,15.5 76.9,14.8 76.1,14.2 75.5,13.5 74.9,12.7 74.1,12.2 73.2,11.8 72.5,11.2 71.9,10.5 71.1,9.8 
	70.3,9.4 69.4,9 68.6,8.5 67.6,8.3 66.9,7.6 66.1,7.1 65.2,6.7 64.4,6.3 63.4,6.2 62.6,5.6 61.6,5.5 60.8,5 59.9,4.6 59,4.3 
	58.1,4.1 57.1,4.1 56.2,3.8 55.3,3.6 54.3,3.7 53.4,3.2 52.5,2.9 51.5,3.2 50.6,3.2 49.7,2.7 48.7,3 47.8,2.9 46.8,2.8 45.9,2.6 
	44.9,2.8 44,2.7 43,2.8 42.1,3 41.1,3.1 40.2,3.2 39.3,3.5 38.3,3.5 37.4,3.7 36.5,4.2 35.5,4.2 34.7,4.7 33.8,4.9 32.9,5.1 32,5.6 
	31.1,5.9 30.2,6.1 29.2,6.2 28.4,6.8 27.5,7 26.7,7.5 26,8.3 25.1,8.7 24.2,9 23.5,9.7 22.7,10.1 21.8,10.5 21.2,11.3 20.3,11.7 
	19.6,12.3 18.8,12.9 18.2,13.6 17.6,14.3 16.8,14.8 15.9,15.2 15.4,16.2 14.6,16.7 14.1,17.5 13.3,18.1 12.7,18.8 12.1,19.5 
	11.6,20.4 11.2,21.2 10.6,21.9 10.2,22.8 9.5,23.5 8.8,24.2 8.3,25 7.9,25.9 7.7,26.8 7.1,27.6 6.7,28.5 6.3,29.3 6.1,30.2 5.5,31 
	5.3,32 4.8,32.8 4.9,33.8 4.7,34.8 4.2,35.6 4.1,36.6 3.6,37.4 3.8,38.4 3.2,39.3 3.1,40.2 3.3,41.2 3.1,42.1 3,43.1 3,44 2.7,45 
	2.6,45.9 2.8,46.9 2.7,47.8 2.8,48.8 3.1,49.7 3.1,50.7 3.2,51.6 3.2,52.6 3,53.6 3.2,54.5 3.6,55.4 3.9,56.3 4,57.3 4.4,58.2 
	4.3,59.2 4.9,60 5.3,60.9 5.5,61.8 5.7,62.8 6.1,63.6 6.2,64.6 6.9,65.4 7.2,66.3 7.5,67.2 8.2,67.9 8.6,68.8 9,69.6 9.6,70.4 
	10.1,71.2 10.9,71.9 11.2,72.8 11.9,73.5 12.5,74.2 13,75.1 13.5,75.9 14.1,76.6 14.9,77.2 15.6,77.9 16.2,78.6 17.1,79.1 
	17.6,79.9 18.3,80.6 19.2,81 20,81.5 20.7,82.2 21.3,83 22.2,83.4 22.8,84.1 23.9,84.2 24.7,84.7 25.5,85.3 26.2,85.9 27.1,86.3 
	27.9,86.7 28.8,87.2 29.8,87.3 30.6,87.8 31.5,88.3 32.4,88.5 33.3,88.9 34.2,89.3 35.2,89.3 36.1,89.5 36.9,90 38,89.8 38.8,90.5 
	39.8,90.5 40.8,90.4 41.7,90.4 42.6,90.9 43.6,90.8 44.6,90.9 45.5,90.9 45.6,90 45.5,89 45.3,88.1 45.6,87.1 45.6,86.2 45.6,85.2 
	45.6,84.3 45.7,83.4 45.3,82.4 45.5,81.5 45.3,80.5 45.7,79.6 45.3,78.6 45.6,77.7 45.7,76.8 45.4,75.8 45.6,74.9 45.3,73.9 
	45.6,73 45.8,72 45.6,71.1 45.3,70.2 45.7,69.2 45.3,68.3 45.4,67.3 45.3,66.4 45.3,65.4 45.6,64.5 45.6,63.5 45.4,62.6 45.7,61.7 
	45.7,60.7 45.7,59.9 46.4,59.9 47.2,60 48.3,59.6 48.3,60.7 48,61.7 48,62.6 47.9,63.6 48.1,64.5 47.9,65.5 47.9,66.4 48.2,67.4 
	48.4,68.4 48,69.3 48.3,70.3 47.9,71.2 48.3,72.2 48,73.1 48.1,74.1 48.2,75 48,76 47.9,76.9 48.2,77.9 47.9,78.9 48,79.8 48,80.8 
	48.3,81.7 47.9,82.7 48.3,83.6 48.2,84.6 48.3,85.5 48.1,86.5 47.9,87.4 48,88.4 48.1,89.4 48.1,90.3 48.4,91.3 48,92.2 47.7,93.1 
	"/>
<polygon class="st1" points="51.8,14 50.8,14.1 49.8,14 48.8,13.8 47.8,13.7 46.7,14 47.1,13.1 47.7,12.2 47.8,11.2 48,10.2 
	48.7,9.5 49,8.5 49.3,7.5 48.6,8.2 48,8.9 47.4,9.6 46.7,10.2 46.2,11 45.7,11.8 44.9,12.4 44.3,13.1 43.7,13.8 43.1,14.5 
	42.4,15.1 41.7,15.9 42.8,16.1 43.6,16.1 44.5,15.8 45.4,16.2 46.3,15.9 47.3,15.9 46.8,16.9 46.3,17.7 46.2,18.7 46,19.7 
	45.3,20.5 45,21.4 44.7,22.5 45.3,21.5 46.1,20.9 46.5,19.9 47.1,19.2 48,18.6 48.8,18 49.4,17.2 49.7,16.1 50.5,15.6 51,14.7 "/>
<polygon class="st2" points="40.2,32.8 40,33.7 39.7,34.6 39.1,35.3 38.4,35.9 37.5,36.2 36.6,36.3 35.7,36.3 34.9,35.8 34.1,35.3 
	33.6,34.6 33.3,33.7 33.1,32.8 33.2,31.9 33.5,31 34.1,30.3 34.9,29.8 35.7,29.4 36.6,29.3 37.6,29.3 38.4,29.8 39.2,30.3 39.7,31 
	40,31.9 "/>
<polygon class="st2" points="54,32.8 53.8,33.7 53.5,34.6 52.8,35.3 52.1,35.9 51.3,36.3 50.4,36.4 49.5,36.2 48.6,35.9 47.8,35.3 
	47.3,34.6 46.9,33.7 46.8,32.8 47,31.9 47.3,31 47.9,30.3 48.6,29.7 49.4,29.4 50.4,29.3 51.3,29.4 52.2,29.7 52.8,30.3 53.4,31 
	53.7,31.9 "/>
<polygon class="st3" points="37.3,32.8 37.1,33.7 36.4,34.3 35.5,34.6 34.6,34.4 34,33.7 33.8,32.8 34,31.9 34.7,31.3 35.5,31.1 
	36.4,31.2 37.1,31.9 "/>
<polygon class="st3" points="50.7,32.8 50.5,33.7 49.8,34.3 49,34.6 48.1,34.3 47.4,33.7 47.1,32.8 47.4,31.9 48.1,31.3 49,31.1 
	49.8,31.3 50.5,31.9 "/>
<path class="st0" d="M67.7,61L67.7,61L67.7,61z M67.7,62.8l-1,0l-1,0l-0.9-0.1l-0.9-0.2l-1,0.1l-0.9-0.5l-1-0.1l-0.9-0.4l-1-0.1
	l-0.9-0.3l-0.7-0.8l-1-0.1L56,59.4L55.1,59l-0.9-0.4l-0.8-0.6l-0.6-0.8l-0.9-0.4L51.4,56l-0.9-0.4l-0.8-0.5L49,54.6l-0.5-0.8
	l-0.7-0.5L47,52.8l-0.6-0.7l-0.6-0.7l-0.9-0.4l-0.7-0.6l-0.9-0.4l-0.6-0.7l-0.8-0.4l-0.9-0.3l-0.7-0.7l-0.9-0.2l-1-0.1l-0.8-0.6
	l-0.9-0.2l-0.9,0l-0.9,0l-0.9-0.2l-0.9,0.4l-0.9,0.1L31,47l-0.8,0.4l-0.9,0.2L28.6,48l-0.9,0.5l-0.9-0.6l-0.4-0.8L26,46.2l0.1-1
	l0.8-0.8l0.8,0l0.8-0.5l0.9-0.3l0.9-0.2l0.8-0.6L32,43l0.9-0.2l0.9,0.3l1,0l1,0l1-0.1l0.9,0.5l1,0.2l1.1-0.2l0.9,0.4l0.9,0.3
	l0.9,0.5l0.9,0.4l0.9,0.4l0.7,0.8l0.9,0.5l0.6,0.8l0.9,0.4l0.9,0.5l0.6,0.8l0.8,0.6l0.8,0.5l0.7,0.6l0.6,0.7l0.5,0.7l0.9,0.5
	l0.8,0.6l0.7,0.7l0.8,0.5l0.7,0.7l1.1,0.2l0.7,0.7l0.7,0.7l0.8,0.5l1,0.2l0.9,0.4l0.9,0.4l0.9,0.6l1-0.2l0.9,0.2l0.9,0.4l1-0.3
	l1,0.2l0.3,0.1l0.4-0.5l1,0l1.1,0.1l1-0.3l0.6-0.9l1-0.6l0.1-0.9l0.3-0.8l0-0.9l0.1-0.9l-0.1-0.9l-0.3-0.9l-0.7-0.6l0.1-1l0.3-0.8
	l0.5-0.8l0.9-0.1l0.8,0.3l0.6,0.6l0.7,0.7l0,1l0.4,0.8l0.3,0.9l0.2,0.9l0,0.9l-0.1,0.9L77,56.3l-0.3,0.9l-0.2,0.9L76.3,59l-0.5,0.7
	l-0.5,0.8l-0.7,0.6l-0.9,0.4l-0.8,0.4l-0.7,0.7l-0.9,0.2l-0.9,0.1l-0.9,0l-0.9,0.2l-0.4-0.2L67.7,62.8z"/>
<path class="st0" d="M25.9,61l0.2,0L25.9,61z M25.6,62.8L25.2,63l-0.9-0.3l-0.9-0.2l-0.9,0.1l-0.9-0.1l-0.7-0.7l-0.9-0.2l-0.5-0.8
	l-1-0.3l-0.5-0.8l-0.2-0.9L17.2,58l-0.3-0.8l-0.4-0.8l-0.3-0.9l0.2-0.9l0-0.9l-0.1-1l0.2-0.9l0.2-0.9l0.8-0.7l0-1l0.9-0.6l0.9-0.4
	l1,0.3l0.6,0.8l0.5,0.9l-0.3,1l-0.7,0.7l-0.3,0.9l0.2,0.9l0,0.9l-0.1,0.9l0.1,0.9l0.2,0.9l0.8,0.7l0.9,0.4l0.9,0.6l1.1,0l1,0.3
	l0.4-0.3l0.3,0.2l1-0.3l1,0.1l1,0l1,0l0.9-0.3l0.9-0.3l0.9-0.4l0.9-0.3l0.8-0.5l0.9-0.4l0.9-0.5l0.8-0.6l0.7-0.7l0.7-0.7l0.8-0.5
	l0.7-0.7l0.9-0.5l0.9-0.4l0.6-0.7l0.7-0.6l0.5-0.7l0.8-0.4l0.9-0.4l0.7-0.7l0.7-0.7l0.7-0.6l0.8-0.5l0.7-0.7l0.9-0.4l0.9-0.4
	l0.8-0.6l0.8-0.5l0.9-0.3l1-0.2l1-0.1l0.9-0.5l1-0.1l1,0l1,0l1,0.1l0.9-0.3l0.9,0l0.8,0.6l0.9,0l0.9,0.1l0.7,0.7l0.8,0.5l0.6,0.2
	l0.7,0.5l0.4,0.9l-0.1,0.9L66.9,48l-1,0.2l-0.8-0.3l-0.8,0l-0.8-0.6l-1,0L61.7,47l-0.9-0.2l-0.9-0.4l-0.9,0L58,46.6l-0.9,0.4
	l-0.9,0.1l-0.9,0.2l-0.9,0.1l-1,0.1l-0.8,0.5l-0.7,0.7l-0.9,0.3l-0.8,0.5l-0.5,0.9l-0.9,0.4l-0.6,0.8l-0.8,0.5l-0.9,0.3l-0.6,0.7
	l-0.7,0.5l-0.5,0.8l-0.9,0.3L43,55.4l-0.6,0.8l-0.9,0.4l-0.7,0.6L40,57.9l-0.7,0.6L38.5,59l-0.8,0.5L37,60.3l-1,0.2l-0.7,0.7l-1,0.1
	l-0.8,0.6l-0.9,0.3l-0.9,0.2l-1,0l-0.9,0.5l-1-0.2l-0.9,0.4l-1,0l-1-0.2L25.6,62.8z"/>
</svg>
