<?xml version="1.0" encoding="utf-8"?>
<!-- Generator: Adobe Illustrator 25.0.0, SVG Export Plug-In . SVG Version: 6.00 Build 0)  -->
<svg version="1.1" id="레이어_1" xmlns="http://www.w3.org/2000/svg" xmlns:xlink="http://www.w3.org/1999/xlink" x="0px"
	 y="0px" width="28px" height="52px" viewBox="0 0 28 52" style="enable-background:new 0 0 28 52;" xml:space="preserve">
<style type="text/css">
	.st0{fill:#00B000;}
	.st1{fill:#009400;}
</style>
<g>
	<path class="st0" d="M8,0c0,2,0,6,0,8H4c0,3.6,0,8.4,0,12H0c0,3.6,0,8.4,0,12h4c0,3.6,0,8.4,0,12h4c0,2,0,6,0,8h4
		c0-17.2,0-34.8,0-52H8z"/>
	<path class="st0" d="M24,20c0-3.6,0-8.4,0-12h-4c0-2,0-6,0-8h-4c0,17.2,0,34.8,0,52h4c0-2,0-6,0-8h4c0-3.6,0-8.4,0-12h4
		c0-3.6,0-8.4,0-12H24z"/>
	<path class="st1" d="M12,0c0,17.2,0,34.8,0,52h4c0-17.2,0-34.8,0-52H12z"/>
</g>
</svg>
